<svg xmlns="http://www.w3.org/2000/svg" viewBox="0 0 512 512" width="512" height="512">
  <defs>
    <linearGradient id="bg" x1="0%" y1="0%" x2="100%" y2="100%">
      <stop offset="0%" style="stop-color:#1a1a2e"/>
      <stop offset="100%" style="stop-color:#16213e"/>
    </linearGradient>
    <linearGradient id="lettergrad" x1="0%" y1="0%" x2="100%" y2="100%">
      <stop offset="0%" style="stop-color:#5a9fd4"/>
      <stop offset="100%" style="stop-color:#4a7c9e"/>
    </linearGradient>
    <radialGradient id="glow" cx="50%" cy="40%" r="55%">
      <stop offset="0%" style="stop-color:#4a7c9e;stop-opacity:0.25"/>
      <stop offset="100%" style="stop-color:#4a7c9e;stop-opacity:0"/>
    </radialGradient>
  </defs>
  <!-- Background — full bleed for maskable -->
  <rect width="512" height="512" fill="url(#bg)"/>
  <!-- Ambient glow -->
  <ellipse cx="256" cy="210" rx="240" ry="210" fill="url(#glow)"/>
  <!-- MK monogram — scaled and centred in the 512 safe zone -->
  <!-- M -->
  <path d="M58 370 L58 148 L110 148 L180 262 L250 148 L302 148 L302 370 L250 370 L250 238 L190 338 L170 338 L110 238 L110 370 Z"
        fill="url(#lettergrad)"
        filter="drop-shadow(0 0 20px rgba(90,159,212,0.55))"/>
  <!-- K -->
  <path d="M318 148 L318 370 L370 370 L370 282 L434 370 L490 370 L418 256 L488 148 L432 148 L370 234 L370 148 Z"
        fill="url(#lettergrad)"
        filter="drop-shadow(0 0 20px rgba(90,159,212,0.55))"/>
</svg>
