<?xml version="1.0" encoding="UTF-8"?>
<svg version="1.1" xmlns="http://www.w3.org/2000/svg" width="1254" height="1254">
<defs>
  <!-- Dialled-back blue, more steel/silver tone, stronger pop -->
  <linearGradient id='iconGrad' gradientUnits='userSpaceOnUse' x1='150' y1='150' x2='950' y2='950'>
    <stop offset='0%'   stop-color='#eef7ff'/>
    <stop offset='8%'   stop-color='#ffffff'/>
    <stop offset='25%'  stop-color='#90c8e8'/>
    <stop offset='45%'  stop-color='#4a8dbf'/>
    <stop offset='63%'  stop-color='#1e5c8a'/>
    <stop offset='78%'  stop-color='#3a84b8'/>
    <stop offset='90%'  stop-color='#7ab8d8'/>
    <stop offset='100%' stop-color='#b8d8ee'/>
  </linearGradient>

  <filter id='glassMetallic' x='-14%' y='-14%' width='128%' height='128%' color-interpolation-filters='sRGB'>
    <!-- Slight blur for surface depth -->
    <feGaussianBlur in='SourceAlpha' stdDeviation='2' result='blur'/>
    <!-- Specular highlight: point light upper-left -->
    <feSpecularLighting in='blur' surfaceScale='7' specularConstant='2.2'
        specularExponent='35' result='specLight' lighting-color='#ffffff'>
      <fePointLight x='350' y='180' z='500'/>
    </feSpecularLighting>
    <feComposite in='specLight' in2='SourceAlpha' operator='in' result='clippedSpec'/>
    <feBlend in='SourceGraphic' in2='clippedSpec' mode='screen' result='blended'/>
    <!-- Stronger, wider shadow for more pop/lift -->
    <feDropShadow dx='0' dy='8' stdDeviation='14' flood-color='#051828' flood-opacity='0.85'/>
  </filter>
</defs>
<path d="M0 0 C413.82 0 827.64 0 1254 0 C1254 413.82 1254 827.64 1254 1254 C840.18 1254 426.36 1254 0 1254 C0 840.18 0 426.36 0 0 Z " fill="#1a1a1a" transform="translate(0,0)"/>
<g filter="url(#glassMetallic)">
<path d="M0 0 C0.70946777 0.18723633 1.41893555 0.37447266 2.14990234 0.56738281 C39.67594488 10.76572998 75.13943742 35.13498489 95.20703125 68.78125 C101.20585386 79.55037817 105.44980562 90.2427742 102.31640625 102.72265625 C95.77212995 120.29172996 80.12167998 129.06267177 64.88916016 138.25439453 C35.291494 155.38235769 35.291494 155.38235769 18.58666992 184.1965332 C17.51842973 189.30123654 17.60912747 194.36796881 17.6875 199.5625 C17.68427734 200.63435547 17.68105469 201.70621094 17.67773438 202.81054688 C17.72601687 209.98708169 18.05920104 217.02136213 21.25 223.5625 C23.02475875 225.27389112 23.02475875 225.27389112 26.0625 225.4375 C27.031875 225.293125 28.00125 225.14875 29 225 C31.18491489 221.72262766 31.25720754 220.68652331 31.30859375 216.87890625 C31.33131348 215.86666992 31.3540332 214.85443359 31.37744141 213.81152344 C31.39726074 212.7393457 31.41708008 211.66716797 31.4375 210.5625 C31.99015425 193.46807126 35.1002295 180.30871484 47.74926758 167.99902344 C51.48928669 164.67726658 55.55616538 161.96212614 59.75 159.25 C60.65741943 158.65292236 61.56483887 158.05584473 62.49975586 157.44067383 C68.75821087 153.35690886 75.12845014 149.48672933 81.5625 145.6875 C91.30078172 139.9355059 100.50693172 133.92039604 108.36328125 125.68359375 C115.98107353 117.84763081 125.52458697 108.71524014 136.796875 107.63671875 C160.35085406 107.93928963 179.44299064 116.2443601 197 132 C198.04646163 132.90282311 199.09335562 133.80514525 200.140625 134.70703125 C228.45296787 159.50616369 245.44612263 195.62182343 248.79785156 232.91455078 C249.47601097 243.26549116 249.25583679 253.63776297 249 264 C248.98984863 264.77408203 248.97969727 265.54816406 248.96923828 266.34570312 C248.64051207 289.76023702 236.56273123 307.87800429 221.75341797 324.97460938 C220.08322267 326.90386866 218.43127088 328.84705861 216.78515625 330.796875 C211.39333111 337.16622569 205.87385633 343.39943617 200.234375 349.55078125 C198.27437117 351.69924699 196.34655509 353.86883807 194.4375 356.0625 C188.72480993 362.62201236 182.98088142 369.1120608 176.76586914 375.20166016 C175.09155386 376.90676265 173.54787405 378.66528608 172.00390625 380.48828125 C167.58887009 385.56300867 162.84815164 390.30217905 158.0847168 395.0456543 C156.56508332 396.5599258 155.05087483 398.0794743 153.53710938 399.59960938 C148.19676598 404.94360579 142.75519 410.10101444 137 415 C131.55314897 419.52202743 131.55314897 419.52202743 129 425.875 C129 426.90625 129 427.9375 129 429 C130.13971859 430.35521439 130.13971859 430.35521439 133.16796875 430.26171875 C149.88743011 429.11981874 169.34839582 409.16512091 181.36987305 398.44140625 C182.47020803 397.46845766 183.58143157 396.50770515 184.70239258 395.55859375 C190.98956051 390.20007104 196.80759195 384.37850985 202.64477539 378.54052734 C204.42510252 376.76238228 206.21328377 374.99240439 208.00195312 373.22265625 C214.05329016 367.2004036 219.78077936 361.12456107 225.06860352 354.41113281 C227.81165124 350.98674407 230.78072099 347.78569328 233.7421875 344.55078125 C236.14286297 341.83859945 238.38023823 339.02959668 240.625 336.1875 C248.46796375 326.64071999 248.46796375 326.64071999 254.5625 325.53515625 C262.62741056 325.0759044 267.81009767 327.65137727 273.984375 332.5859375 C286.83925423 344.36100688 294.14111932 361.34614944 301 377 C301.31984863 377.72348633 301.63969727 378.44697266 301.96923828 379.19238281 C319.7431557 420.55899868 318.41940441 471.72683558 302 513 C296.86004811 525.02142757 289.00183394 536.99908303 277 543 C270.27947718 543.79735016 270.27947718 543.79735016 267.25195312 541.91064453 C262.95890956 538.11693907 259.52097615 534.08671779 256.1875 529.4375 C255.1438896 528.01514019 254.09960895 526.59327194 253.0546875 525.171875 C252.54131836 524.46869141 252.02794922 523.76550781 251.49902344 523.04101562 C246.23664365 515.87595128 240.74707406 508.87320626 235.1875 501.9375 C234.50042969 501.08027344 233.81335938 500.22304688 233.10546875 499.33984375 C230.03697185 495.92977021 226.43179361 492.43381558 222 491 C217.65833586 491.08916112 217.65833586 491.08916112 214 493 C213.23432693 498.10448713 214.72537406 500.68077081 217.60498047 504.65527344 C218.12721191 505.3465332 218.64944336 506.03779297 219.1875 506.75 C219.99791748 507.86036621 219.99791748 507.86036621 220.82470703 508.99316406 C222.5379686 511.33773117 224.26865794 513.66876524 226 516 C247.98315153 545.97401054 264.69000244 569.43802682 258.76904297 608.08007812 C257.9352455 613.07188157 256.99625695 618.03828459 256 623 C255.85046875 623.76473633 255.7009375 624.52947266 255.546875 625.31738281 C253.22418762 636.86092403 248.89428176 647.34214684 244 658 C243.67483398 658.71220703 243.34966797 659.42441406 243.01464844 660.15820312 C227.587376 693.52379947 200.86863597 724.27377157 166.02636719 737.76416016 C161.73187629 739.34135926 157.38357717 740.68939482 153 742 C151.58654297 742.47953125 151.58654297 742.47953125 150.14453125 742.96875 C139.26743037 746.43913964 125.49732989 746.93117813 115 742 C109.8821651 738.54294841 105.43055324 734.27864856 101 730 C100.05511719 729.09894531 99.11023438 728.19789063 98.13671875 727.26953125 C94.51527816 723.72502566 91.04019851 720.10353275 87.75 716.25 C84.28091643 712.24403445 80.67268283 708.38139754 77 704.5625 C76.41831055 703.9344043 75.83662109 703.30630859 75.23730469 702.65917969 C72.15496589 699.50060541 70.52117827 698.13081995 66.125 697.02734375 C65.09375 697.01832031 64.0625 697.00929688 63 697 C61.57683193 698.19973932 61.57683193 698.19973932 61.8125 701.6875 C62.74054172 709.2685161 68.39636972 715.20152148 73 721 C73.71671875 721.90621094 74.4334375 722.81242188 75.171875 723.74609375 C77.41967471 726.52204189 79.70470508 729.26316743 82 732 C84.40204446 734.86987424 86.79586585 737.7464482 89.1875 740.625 C89.76983398 741.31762939 90.35216797 742.01025879 90.95214844 742.72387695 C100.22978058 753.89056595 106.3696952 763.06291855 105 778 C101.92605206 795.79771307 93.34178075 807.41231791 80 819 C79.30777344 819.61617187 78.61554688 820.23234375 77.90234375 820.8671875 C74.4607731 823.92149012 70.94720647 826.88579111 67.4230957 829.84423828 C61.95325094 834.44008917 56.62125842 839.13942052 51.39086914 844.00585938 C47.22844064 847.85298375 42.86323995 851.40175844 38.44921875 854.953125 C36.33591462 856.71926753 34.41058009 858.52134698 32.5 860.5 C28.92809944 864.19916542 24.9638748 867.32416849 20.9609375 870.54296875 C17.85355394 873.12152318 14.89160532 875.81228959 11.9375 878.5625 C-0.25542321 889.79599281 -12.82459106 899.6842368 -30 901 C-31.13824219 901.0928125 -32.27648437 901.185625 -33.44921875 901.28125 C-55.60582681 902.20733602 -72.75524766 890.76260586 -88.5234375 876.3125 C-89.34070313 875.549375 -90.15796875 874.78625 -91 874 C-91.77601563 873.278125 -92.55203125 872.55625 -93.3515625 871.8125 C-107.85683226 857.85553941 -113.75974097 843.91680517 -114.17480469 823.94311523 C-114.25913071 816.6701939 -114.22825965 809.39812261 -114.1875 802.125 C-114.17795559 799.50789426 -114.16851599 796.89078813 -114.15917969 794.27368164 C-114.12670286 786.84890487 -114.06686562 779.42453465 -114 772 C-113.9926886 771.03982971 -113.9853772 770.07965942 -113.97784424 769.09039307 C-113.80246425 746.28730727 -112.61815298 727.08195853 -101 707 C-100.42378906 705.97132813 -99.84757813 704.94265625 -99.25390625 703.8828125 C-94.23191977 695.84345784 -87.66001121 689.30155303 -81 682.625 C-80.29118683 681.91292389 -80.29118683 681.91292389 -79.5680542 681.1864624 C-73.68706569 675.30852803 -67.64408055 669.98690715 -61 665 C-58.35742735 662.89653258 -55.74154101 660.76072504 -53.125 658.625 C-52.43301514 658.06119629 -51.74103027 657.49739258 -51.02807617 656.91650391 C-49.64806934 655.79179273 -48.26841884 654.66664415 -46.88916016 653.54101562 C-45.25455314 652.20764272 -43.61771533 650.87700547 -41.98046875 649.546875 C-39.31194025 647.37454433 -36.6539668 645.19009294 -34 643 C-33.46213867 642.55914063 -32.92427734 642.11828125 -32.37011719 641.6640625 C-18.95602172 631.24399046 -18.95602172 631.24399046 -13 616 C-17.95959928 614.84479577 -21.73312194 614.42065802 -26.2890625 616.95703125 C-27.75027112 617.8842661 -29.19519067 618.8375434 -30.625 619.8125 C-31.40858887 620.31950439 -32.19217773 620.82650879 -32.99951172 621.34887695 C-35.34883267 622.87672202 -37.67535844 624.43494527 -40 626 C-41.21766609 626.80112908 -42.43632973 627.60074519 -43.65625 628.3984375 C-46.69967942 630.39986036 -49.72069971 632.43301634 -52.73828125 634.47314453 C-81.87951649 654.14599483 -81.87951649 654.14599483 -92 660 C-92.66515625 660.38671875 -93.3303125 660.7734375 -94.015625 661.171875 C-97.85194386 662.77285846 -101.93475867 662.56142268 -106 662 C-109.09799981 659.80873184 -109.80352112 658.58943664 -111 655 C-111.10573562 653.05218487 -111.15237343 651.1009702 -111.1673584 649.15034485 C-111.17884918 647.92931564 -111.19033997 646.70828644 -111.20217896 645.45025635 C-111.20980384 644.09484946 -111.21727548 642.7394417 -111.22460938 641.3840332 C-111.23578609 639.95816287 -111.24729946 638.53229515 -111.25912476 637.10643005 C-111.29566969 632.4212509 -111.32090115 627.73604495 -111.34375 623.05078125 C-111.34769587 622.25320144 -111.35164173 621.45562164 -111.35570717 620.63387275 C-111.39212617 613.10926952 -111.4235639 605.58465684 -111.44481659 598.0599947 C-111.47238409 588.44231008 -111.52313974 578.82536348 -111.60529089 569.20798618 C-111.66112548 562.44183434 -111.69005875 555.67588248 -111.6992898 548.90950841 C-111.70554062 544.87021615 -111.72360081 540.83178952 -111.77067566 536.7927494 C-111.81445179 532.98965481 -111.82479824 529.1878959 -111.81004715 525.38459206 C-111.81037491 523.99303061 -111.82258272 522.60141041 -111.84789658 521.21007919 C-112.05102165 509.41800271 -112.05102165 509.41800271 -107.66589355 504.28752136 C-105.84111786 502.52818584 -105.84111786 502.52818584 -104 501 C-103.08275524 500.22824165 -103.08275524 500.22824165 -102.14698029 499.44089222 C-100.4995189 498.10788354 -98.80501595 496.89295254 -97.0625 495.6875 C-96.49337891 495.27177734 -95.92425781 494.85605469 -95.33789062 494.42773438 C-88.83465874 489.83678841 -82.65904517 487.56852064 -74.625 487.5 C-73.42101562 487.4690625 -72.21703125 487.438125 -70.9765625 487.40625 C-60.64753383 488.32992 -53.60661698 495.71549387 -46.8125 502.8125 C-45.96236328 503.67681641 -45.11222656 504.54113281 -44.23632812 505.43164062 C-39.87909959 509.88980882 -35.69011341 514.45064843 -31.61987305 519.1706543 C-29.0436466 522.08002352 -26.28032816 524.78731973 -23.5 527.5 C-20.05568243 530.86051422 -16.73557547 534.25859775 -13.59375 537.90625 C-9.92817934 542.14824484 -6.0006329 546.07600758 -2 550 C1.93768245 553.86224792 5.81192861 557.71913692 9.40625 561.90625 C13.52404575 566.68700152 18.00537571 571.07638084 22.5 575.5 C24.13791964 577.11204413 25.77337266 578.72659861 27.40625 580.34375 C28.12103516 581.04693359 28.83582031 581.75011719 29.57226562 582.47460938 C31.55001597 584.53191525 33.4245026 586.62002075 35.29003906 588.77685547 C41.17714618 595.5528692 47.55717886 601.8588504 53.87744141 608.22753906 C55.45740312 609.82408404 57.03197743 611.42597876 58.60107422 613.03320312 C72.99718022 628.70701787 72.99718022 628.70701787 92.5291748 635.14044189 C93.96147346 635.15244697 95.39382456 635.15895952 96.82617188 635.16113281 C97.61037003 635.16609772 98.39456818 635.17106262 99.20252991 635.17617798 C101.79127891 635.19075892 104.37996672 635.19759344 106.96875 635.203125 C108.76949057 635.20887812 110.57023113 635.21463583 112.37097168 635.22039795 C116.14363897 635.23089517 119.91628501 635.23674676 123.68896484 635.24023438 C128.52458517 635.24572813 133.3599252 635.26978023 138.19545746 635.29820633 C141.9134809 635.31681865 145.63143647 635.32203747 149.34950256 635.32357025 C151.13250772 635.32659855 152.91551163 635.33463306 154.69847107 635.34775543 C157.19047521 635.36479292 159.68178952 635.36294196 162.17382812 635.35644531 C162.91057266 635.3656601 163.6473172 635.37487488 164.40638733 635.3843689 C167.54425329 635.35871769 169.69118028 635.17306103 172.45373535 633.62493896 C174.1909339 632.07098301 174.1909339 632.07098301 174.56640625 629.64453125 C173.75024738 625.83391364 171.76820677 624.32009539 168.9375 621.6875 C165.69735336 618.64291777 162.62563852 615.62502517 159.73046875 612.25 C155.5164747 607.36366474 150.95866502 602.84961217 146.375 598.3125 C145.54226563 597.48427734 144.70953125 596.65605469 143.8515625 595.80273438 C142.30244214 594.26224765 140.75228646 592.72280072 139.20068359 591.18481445 C134.67894377 586.69568092 130.18355413 582.18013165 125.68432617 577.66845703 C119.44845987 571.41622659 113.21002834 565.16656216 106.97014904 558.91833687 C103.20297055 555.14593926 99.43673334 551.37261166 95.67260742 547.59716797 C92.01861186 543.93226071 88.36213697 540.26984365 84.70397377 536.60909653 C83.31694231 535.22022825 81.93078602 533.83048536 80.54555321 532.43982315 C71.28411395 523.07984563 71.28411395 523.07984563 61.49897766 514.27755737 C59.19820901 512.31664492 57.10757506 510.16453655 55 508 C51.57693209 504.54068175 48.09041397 501.27082254 44.39453125 498.109375 C40.34415187 494.54134096 36.43391748 490.82150794 32.50488281 487.12084961 C29.26539089 484.07844168 26.00420255 481.12719931 22.5625 478.3125 C17.82923734 474.21719883 14.40513486 469.21297832 11 464 C10.46761719 463.21882813 9.93523437 462.43765625 9.38671875 461.6328125 C4.59821733 453.62050308 4.57257495 443.98880568 6.69921875 435.06640625 C10.23008596 425.51667678 16.43959315 418.07133308 23.9375 411.375 C25.30184367 410.13397949 26.66513241 408.89179819 28.02734375 407.6484375 C28.68968018 407.04684814 29.3520166 406.44525879 30.03442383 405.82543945 C32.58612565 403.45566246 35.03061178 400.98904832 37.47924805 398.51367188 C39.22807324 396.77298859 41.05071465 395.15202376 42.9375 393.5625 C46.38421216 390.59394444 49.59110859 387.45920896 52.75 384.1875 C54.65759132 382.33289733 56.60294623 380.60684915 58.62034607 378.87547302 C63.03398769 375.0229148 67.18887043 370.95203907 71.32446289 366.80493164 C72.50903831 365.6229847 72.50903831 365.6229847 73.71754456 364.41716003 C76.30508809 361.83398693 78.88899259 359.24720952 81.47265625 356.66015625 C83.28276726 354.85071966 85.09302662 353.04143148 86.90342712 351.23228455 C90.68830377 347.44887836 94.4714239 343.6637279 98.25317383 339.87719727 C102.60702624 335.51790406 106.964469 331.16222461 111.32379347 326.80840403 C115.5409622 322.59634393 119.7552875 318.38144759 123.96844292 314.16537285 C125.75099851 312.38215285 127.53428983 310.59966798 129.31834602 308.8179493 C131.81631033 306.32254044 134.31101974 303.82392089 136.80493164 301.32446289 C137.53395691 300.59746185 138.26298218 299.87046082 139.01409912 299.12142944 C143.01284734 295.10629255 146.83748902 290.9952139 150.52873898 286.69499874 C152.38699143 284.55415797 154.35353845 282.54910876 156.375 280.5625 C157.13296875 279.81226563 157.8909375 279.06203125 158.671875 278.2890625 C160.22395833 276.76302083 161.77604167 275.23697917 163.328125 273.7109375 C167.56087586 269.52137797 171.60456803 265.25395853 175.48583984 260.73681641 C177.33340527 258.6175677 179.29281989 256.64242083 181.3125 254.6875 C185.5690455 250.75210676 185.5690455 250.75210676 187.1875 245.375 C187.26221698 243.04579619 187.26221698 243.04579619 186 242 C183.16180813 241.87811201 180.34753943 241.82135432 177.50805664 241.80712891 C176.61689148 241.79895142 175.72572632 241.79077393 174.80755615 241.78234863 C171.84176309 241.75742721 168.87601836 241.74095504 165.91015625 241.7265625 C164.39121167 241.71857698 164.39121167 241.71857698 162.84158134 241.71043015 C157.474392 241.68366014 152.10722614 241.66430386 146.73999023 241.64990234 C141.20857866 241.63331033 135.6777694 241.58858938 130.14658451 241.5375309 C125.88530338 241.50376915 121.62416302 241.49231467 117.36276054 241.48667526 C115.32511265 241.47997971 113.28747347 241.46480211 111.24995613 241.44078445 C94.25788149 241.24501031 94.25788149 241.24501031 79.86328125 249.61328125 C79.02152344 250.50402344 78.17976562 251.39476562 77.3125 252.3125 C76.84956543 252.79541504 76.38663086 253.27833008 75.90966797 253.77587891 C72.83119053 257.01349524 69.9039855 260.37358224 67.0078125 263.7734375 C63.77926578 267.35373251 60.32889433 270.71303507 56.88134766 274.08154297 C54.01098676 276.90635649 51.28169131 279.78880101 48.65625 282.84375 C43.95512617 288.28414247 38.79559444 293.2513115 33.671875 298.2890625 C32.53492188 299.41441406 32.53492188 299.41441406 31.375 300.5625 C30.70210937 301.22378906 30.02921875 301.88507813 29.3359375 302.56640625 C27.41387802 304.56881939 25.6008997 306.6042512 23.79150391 308.70629883 C19.71861673 313.39222033 15.36360728 317.76240848 10.9609375 322.13671875 C10.11705475 322.97918655 9.273172 323.82165436 8.40371704 324.68965149 C5.72983728 327.35797903 3.05249171 330.02279732 0.375 332.6875 C-1.42991988 334.48739721 -3.23460954 336.28752532 -5.0390625 338.08789062 C-8.34574658 341.38643997 -11.65371917 344.68368442 -14.96337891 347.97924805 C-19.51566009 352.51268585 -24.05811898 357.05542825 -28.58203125 361.6171875 C-30.32545173 363.3698604 -32.06894335 365.12246256 -33.8125 366.875 C-34.67681641 367.74769531 -35.54113281 368.62039063 -36.43164062 369.51953125 C-40.93109943 374.03596915 -45.48826373 378.39612994 -50.3269043 382.54736328 C-52.31688394 384.27512906 -54.16989511 386.10453423 -56 388 C-59.13603821 391.24803957 -62.48481373 394.18573257 -65.89013672 397.14404297 C-69.18486629 400.0422765 -72.37255424 403.04995264 -75.5625 406.0625 C-76.95952681 407.37641757 -78.35666502 408.6902167 -79.75390625 410.00390625 C-80.80795654 410.99608154 -80.80795654 410.99608154 -81.88330078 412.00830078 C-99.95593648 429.01367126 -99.95593648 429.01367126 -107 435 C-108.32 434.34 -109.64 433.68 -111 433 C-111.25758994 395.95629456 -111.51260195 358.91257217 -111.76436454 321.86882665 C-111.79438928 317.45136934 -111.82443441 313.03391216 -111.85449219 308.61645508 C-111.86047342 307.73737007 -111.86645465 306.85828505 -111.87261713 305.9525611 C-111.9683073 291.89567172 -112.06563272 277.83879414 -112.16361082 263.78192053 C-112.26482494 249.25528979 -112.36417007 234.72864706 -112.46193409 220.20199269 C-112.51660382 212.08603639 -112.57203371 203.97008703 -112.62960815 195.85415077 C-112.7462143 179.36492904 -112.85280185 162.87573403 -112.9316721 146.38628381 C-112.96860727 138.71957674 -113.01189293 131.05298195 -113.06658936 123.38637924 C-113.11790071 116.17456123 -113.15778002 108.96277586 -113.18479842 101.75082469 C-113.19930192 97.96662836 -113.21868997 94.18262699 -113.25146675 90.39854109 C-113.28730638 86.23795995 -113.29877171 82.07764051 -113.30834961 77.91691589 C-113.32244055 76.7098709 -113.33653149 75.50282591 -113.35104942 74.25920379 C-113.32893324 52.43303192 -105.23946389 33.63287784 -90.3125 17.75 C-65.54895274 -5.89841858 -31.88488817 -8.49247727 0 0 Z " fill="url(#iconGrad)" transform="translate(762,173)"/>
<path d="M0 0 C3.79444994 2.40411713 6.94351091 5.52611483 10.1875 8.61328125 C12.90723824 11.16582247 15.70295197 13.52356327 18.609375 15.859375 C22.1305354 18.69918092 25.53036777 21.60940593 28.859375 24.671875 C33.31154528 28.72892399 37.9673049 32.44234 42.72265625 36.13134766 C46.6671917 39.19586582 50.537536 42.33081719 54.359375 45.546875 C59.70491611 50.03318553 65.16402359 54.33753716 70.71386719 58.56738281 C72.57964838 59.99192522 74.43838835 61.42533369 76.296875 62.859375 C76.88774902 63.30659912 77.47862305 63.75382324 78.08740234 64.21459961 C78.65668457 64.65553955 79.2259668 65.09647949 79.8125 65.55078125 C80.31555664 65.93564697 80.81861328 66.3205127 81.33691406 66.71704102 C85.26345699 70.34477649 87.76323825 72.6849235 88.69715881 77.99253845 C88.73454724 79.3864259 88.74550161 80.78119078 88.73461914 82.17553711 C88.74843124 82.94235809 88.76224335 83.70917908 88.776474 84.49923706 C88.80309477 86.15723432 88.81843853 87.81544342 88.82365608 89.47364616 C88.83215547 92.11279155 88.87058696 94.75006331 88.91636658 97.3888092 C89.00800703 103.00381797 89.05973021 108.61886436 89.109375 114.234375 C89.17150799 120.71687006 89.2505078 127.19869243 89.35769463 133.68060493 C89.39355853 136.25441051 89.4061104 138.82758228 89.41700745 141.40159607 C89.6824479 165.62983625 98.27932973 185.47725878 115.46044922 202.75830078 C124.7379031 211.75591764 134.98886585 219.77032753 144.98046875 227.94921875 C148.60159706 230.91920528 152.17448924 233.94149419 155.734375 236.984375 C160.04457493 240.66394431 164.4426663 244.20045705 168.921875 247.671875 C175.91744553 253.10128757 182.57188844 258.88555216 189.23291016 264.71679688 C192.06653101 267.18505988 194.92779825 269.61998571 197.796875 272.046875 C198.32990234 272.49804688 198.86292969 272.94921875 199.41210938 273.4140625 C202.77695433 276.25198352 206.1837565 279.03285664 209.609375 281.796875 C211.42648068 283.29129234 213.23885702 284.79147564 215.046875 286.296875 C216.04847656 287.12574219 217.05007813 287.95460938 218.08203125 288.80859375 C233.00709607 301.54260722 239.65568745 316.59145274 241.19989014 336.06063843 C241.30947547 337.57340312 241.41483408 339.08647952 241.51611328 340.599823 C241.67516064 342.97085635 241.85269334 345.33988871 242.03515625 347.70922852 C242.27430639 350.82707981 242.50804271 353.9452278 242.73535156 357.06396484 C243.13009106 362.45808465 243.55889315 367.84784613 244.046875 373.234375 C244.10568848 374.00668457 244.16450195 374.77899414 244.22509766 375.57470703 C244.65824384 380.25118114 245.6564097 383.9064097 249.046875 387.296875 C254.37360536 387.63544328 254.37360536 387.63544328 259.046875 385.296875 C264.89389412 373.89312345 264.20092106 359.69544031 264.796875 347.234375 C264.91910702 344.89280093 265.04174875 342.55124822 265.16479492 340.2097168 C265.78474432 328.01503937 266.31488434 315.82120693 266.359375 303.609375 C266.36485352 302.55161865 266.37033203 301.4938623 266.37597656 300.40405273 C266.14159693 276.14374048 252.56537223 258.76350881 236.046875 242.296875 C235.29148437 241.51828125 234.53609375 240.7396875 233.7578125 239.9375 C228.72732737 234.78924431 223.52035318 230.1341456 217.8984375 225.64453125 C214.84298005 223.1290108 211.94112188 220.49378687 209.046875 217.796875 C204.41474914 213.48654898 199.62561836 209.4462357 194.6953125 205.4765625 C191.21125725 202.6091542 187.89736516 199.57370066 184.56640625 196.53125 C182.02161773 194.27447631 179.39906012 192.16011298 176.734375 190.046875 C162.7833677 178.65223125 152.26684805 168.07531949 150.21855164 149.3654747 C149.57980843 141.66900512 149.7629643 133.90739382 149.78125 126.19140625 C149.77990041 124.17453464 149.77795743 122.15766335 149.77545166 120.14079285 C149.77252168 115.94270691 149.77673407 111.74470675 149.78613281 107.54663086 C149.79760744 102.15847224 149.79090426 96.77051114 149.77898788 91.3823595 C149.77178058 87.23122145 149.77405059 83.08013075 149.77924347 78.92899132 C149.78057892 76.9405992 149.7789359 74.95220281 149.77428436 72.96381569 C149.76922894 70.19947394 149.77691166 67.43545978 149.78808594 64.67114258 C149.78403748 63.84783951 149.77998901 63.02453644 149.77581787 62.17628479 C149.81832955 56.52542045 149.81832955 56.52542045 152.046875 54.296875 C158.79266726 54.38326722 162.35151986 56.36325999 167.484375 60.546875 C168.16395264 61.07901611 168.84353027 61.61115723 169.54370117 62.15942383 C170.98332373 63.28673599 172.41822453 64.42010092 173.84863281 65.55908203 C176.75901444 67.85984796 179.71743449 70.09407404 182.67675781 72.33129883 C189.93314401 77.82715911 197.08005758 83.43637623 204.046875 89.296875 C204.57845215 89.74353516 205.1100293 90.19019531 205.65771484 90.65039062 C218.0568835 101.09551532 230.14362081 111.37650036 240.046875 124.296875 C240.87642278 125.34989009 241.70719516 126.40194137 242.5390625 127.453125 C246.66805466 132.70549213 250.58088003 138.0092302 254.234375 143.609375 C259.75305812 152.96328718 259.75305812 152.96328718 268.609375 158.109375 C275.31834213 156.52361913 279.19119027 151.17545237 283.171875 145.859375 C290.61033227 136.17454235 298.33324144 126.69593697 307.13549805 118.20947266 C308.90894691 116.43489118 310.53196175 114.60904606 312.15234375 112.6953125 C317.33727727 106.72428281 323.03389648 101.26488369 328.6640625 95.71875 C333.6832878 90.74529271 338.44789279 85.65843605 343.046875 80.296875 C344.72300171 78.40551439 346.43060019 76.56803255 348.171875 74.734375 C349.38230469 73.43306641 349.38230469 73.43306641 350.6171875 72.10546875 C353.046875 70.296875 353.046875 70.296875 355.69873047 70.68383789 C356.86106201 70.98729126 356.86106201 70.98729126 358.046875 71.296875 C358.04861125 71.84556863 358.0503475 72.39426227 358.05213636 72.95958298 C358.1567245 105.98310465 358.26511303 139.00661163 358.37799194 172.03010596 C358.39175035 176.05612198 358.40547911 180.08213811 358.41918945 184.1081543 C358.42191776 184.9091691 358.42464606 185.71018391 358.42745704 186.53547189 C358.46541107 197.69648614 358.50178162 208.85750453 358.53683231 220.01852826 C358.59736449 239.29231433 358.66091867 258.56608794 358.73046875 277.83984375 C358.73455437 278.97310127 358.73455437 278.97310127 358.73872253 280.12925288 C358.91505816 328.84121823 359.2612542 377.54847097 359.87804985 426.25712013 C360.07251183 441.72604631 360.20871183 457.19538614 360.32820129 472.66505718 C360.34927348 475.33125958 360.37155756 477.99742129 360.39573669 480.66359425 C360.40693542 481.9476953 360.41813416 483.23179636 360.42967224 484.55480957 C360.44512919 486.25407215 360.44512919 486.25407215 360.4608984 487.98766327 C360.53750993 509.06615675 356.37872253 523.49482534 341.62841797 538.66845703 C340.15248101 540.18813895 338.69418799 541.72288389 337.23828125 543.26171875 C323.48928422 557.48963585 306.32683457 569.96248321 285.88305664 570.64648438 C267.24766186 570.86047146 253.07117534 564.40596252 239.046875 552.296875 C237.92125315 551.34294675 236.79490459 550.38987559 235.66796875 549.4375 C230.32630839 544.90623836 225.04201438 540.32236343 219.859375 535.609375 C216.52460386 532.57974632 213.11399861 529.69079408 209.609375 526.859375 C204.83691297 522.99978897 200.31578391 518.92487509 195.80078125 514.76953125 C192.21831518 511.55293406 188.48679908 508.54402522 184.7421875 505.51953125 C181.18629541 502.58720864 177.77847662 499.50873362 174.37109375 496.40625 C172.32645165 494.55060843 170.25903351 492.72931124 168.171875 490.921875 C166.79515602 489.71550056 165.42037099 488.50691765 164.046875 487.296875 C163.08394531 486.45125 162.12101563 485.605625 161.12890625 484.734375 C147.41692002 472.54737269 138.34867246 459.36279922 136.7265625 440.58984375 C136.2432308 424.68823096 143.02089966 414.6417129 151.42236328 401.78759766 C162.53861038 384.74402193 173.48901578 367.43539165 182.859375 349.359375 C183.35679199 348.42992065 183.35679199 348.42992065 183.86425781 347.48168945 C185.96436874 343.29241769 186.52110277 339.95344884 186.046875 335.296875 C184.13510539 332.92285181 184.13510539 332.92285181 180.796875 333.234375 C172.66223295 335.53919025 168.05766568 345.38722908 163.484375 352.046875 C162.78473633 353.0589502 162.08509766 354.07102539 161.36425781 355.11376953 C156.98753908 361.45215707 152.64037759 367.81070255 148.296875 374.171875 C123.47460884 410.48763039 123.47460884 410.48763039 113.3125 413.875 C93.26492991 417.60799581 74.33640432 409.28090877 58.046875 398.296875 C27.18827786 376.90289551 5.98747707 342.44329795 -5.33300781 307.22119141 C-5.90305039 305.45226399 -6.500997 303.69239272 -7.1015625 301.93359375 C-15.1129926 276.78493159 -18.12945292 243.49854923 -6.390625 219.296875 C2.34447301 202.54896614 14.62539348 190.28438538 28.07250977 177.32128906 C30.6496703 174.67879924 31.03470682 173.90528403 31.109375 170.171875 C31.08875 169.223125 31.068125 168.274375 31.046875 167.296875 C27.92777358 165.73732429 25.39852813 165.59739956 22.046875 166.296875 C8.88340325 172.36947519 -1.38658064 182.4368254 -11.390625 192.671875 C-12.85980342 194.1688102 -14.33051778 195.66415911 -15.80421448 197.15664673 C-17.12343286 198.49351279 -18.4377247 199.83523517 -19.75170898 201.17724609 C-23.09450226 204.39584776 -25.18226207 205.60147004 -29.765625 205.671875 C-35.92845762 205.53751092 -38.91168492 203.08313507 -43.453125 199.109375 C-58.13115617 182.59658993 -62.98418384 160.56828358 -65.953125 139.296875 C-66.13617188 138.09417969 -66.31921875 136.89148438 -66.5078125 135.65234375 C-71.46057142 94.44478554 -61.71375301 46.98250266 -35.890625 13.859375 C-26.22675622 2.36465608 -15.98280579 -7.00073312 0 0 Z " fill="url(#iconGrad)" transform="translate(244.953125,503.703125)"/>
<path d="M0 0 C16.41467581 13.53542888 26.99614192 30.46258929 30.3125 51.6875 C30.98498196 58.92452367 30.84100596 66.20097647 30.79833984 73.46118164 C30.80049053 75.60666637 30.80437535 77.75214995 30.80984497 79.89762878 C30.81946702 85.67861275 30.80432475 91.4592837 30.78393888 97.24022985 C30.76625101 103.31635328 30.76989523 109.39246873 30.7706604 115.46861267 C30.76879262 125.66736017 30.75149937 135.865988 30.72412109 146.06469727 C30.69266759 157.82427003 30.68212556 169.58371197 30.6835922 181.34332377 C30.68494741 193.91052213 30.67104285 206.47767067 30.65269899 219.04485393 C30.6484545 222.64573468 30.64701912 226.24660729 30.64622116 229.84749031 C30.64419886 235.5234619 30.63188082 241.19932548 30.61188889 246.87526131 C30.60609217 248.94755389 30.60357721 251.01985891 30.60474396 253.09215927 C30.61675154 287.4289123 30.61675154 287.4289123 18.875 299.25 C18.3178833 299.77658203 17.7607666 300.30316406 17.18676758 300.84570312 C15.37565571 302.62543843 13.73426939 304.46881548 12.08984375 306.40234375 C7.73351596 311.4219546 3.01546709 316.03631389 -1.7265625 320.6875 C-4.94238688 323.86607545 -8.06012566 327.0631469 -11 330.5 C-16.04722461 336.35981633 -21.6413303 341.69828041 -27.14453125 347.12402344 C-32.88909145 352.79503469 -38.45318514 358.53818453 -43.6875 364.6875 C-49.38712118 371.05316887 -49.38712118 371.05316887 -53.25 372.9375 C-59.08700091 372.33883324 -63.1275733 366.18736989 -66.7109375 361.98046875 C-68.94109668 359.39330781 -71.24781382 356.88675698 -73.5625 354.375 C-76.87086914 350.75226095 -80.04762358 347.07057109 -83.125 343.25 C-86.34695075 339.25523566 -89.69427983 335.44218333 -93.1875 331.6875 C-97.39701155 327.15841631 -101.36122687 322.4848226 -105.2421875 317.671875 C-111.74415418 309.73656743 -118.5360655 302.02666486 -125.4375 294.4375 C-128.44510608 291.12310714 -131.31179696 287.73090917 -134.125 284.25 C-137.99274427 279.46745013 -142.07610907 274.93686936 -146.2421875 270.4140625 C-148.5315938 267.8613379 -150.67987872 265.24652146 -152.8125 262.5625 C-156.92194491 257.49515957 -161.25668098 252.6633254 -165.6875 247.875 C-166.33992676 247.15747559 -166.99235352 246.43995117 -167.66455078 245.70068359 C-176.36492418 236.40222724 -185.40428344 230.76009629 -198.23291016 230.28491211 C-210.71273188 230.10277142 -219.43438308 233.02160011 -228.6875 241.6875 C-237.2183082 250.66423681 -240.81554409 262.27102653 -240.87695312 274.38745117 C-240.88524643 275.26425034 -240.89353973 276.1410495 -240.90208435 277.04441833 C-240.91946234 278.94542337 -240.93463528 280.84644956 -240.94786072 282.74748802 C-240.96889785 285.75158137 -240.99591717 288.75556772 -241.02453613 291.75959778 C-241.09434604 299.21681397 -241.15387899 306.67410577 -241.21356201 314.13140869 C-241.2644022 320.43831826 -241.31918223 326.74516881 -241.37937927 333.05199623 C-241.40604011 336.0196065 -241.4267981 338.98722204 -241.4473877 341.95487976 C-241.46398154 343.76183336 -241.48085256 345.56878444 -241.49804688 347.37573242 C-241.50223129 348.20741943 -241.50641571 349.03910645 -241.51072693 349.89599609 C-241.57364952 355.57364952 -241.57364952 355.57364952 -242.6875 356.6875 C-249.46267493 356.59158375 -253.04612727 353.59398712 -258.125 349.375 C-259.72021162 348.08972648 -261.31658872 346.80589829 -262.9140625 345.5234375 C-263.71231445 344.87729492 -264.51056641 344.23115234 -265.33300781 343.56542969 C-268.82069596 340.7836693 -272.4079056 338.14449744 -276 335.5 C-282.59026763 330.60335682 -288.87834406 325.431115 -295.08447266 320.05957031 C-296.75273746 318.63166166 -298.44120295 317.23134938 -300.13671875 315.8359375 C-306.16052187 310.86468063 -311.92924278 305.9311391 -316.6875 299.6875 C-317.19539063 299.0275 -317.70328125 298.3675 -318.2265625 297.6875 C-330.75337405 280.21420389 -331.87519484 261.15686701 -331.87280273 240.43164062 C-331.87499076 238.32140951 -331.89324259 236.2117021 -331.91210938 234.1015625 C-331.96452372 221.67538759 -330.81631762 209.4779981 -327.5625 197.4375 C-327.35222168 196.6522998 -327.14194336 195.86709961 -326.92529297 195.05810547 C-319.11121486 167.27533021 -303.2019782 140.03440458 -280.6875 121.6875 C-280.10226562 121.14222656 -279.51703125 120.59695313 -278.9140625 120.03515625 C-263.33305156 105.53889924 -243.12367544 95.48524181 -221.6484375 96.125 C-209.83076348 97.03932681 -200.06137331 104.70421279 -191.1484375 111.92578125 C-187.18969339 115.12644328 -183.0714247 118.09355046 -178.9375 121.0625 C-178.17759766 121.60962646 -177.41769531 122.15675293 -176.63476562 122.72045898 C-171.38352483 126.49215715 -166.1016444 130.21924102 -160.8125 133.9375 C-154.00631697 138.73114372 -147.24963857 143.5611045 -140.6875 148.6875 C-140.14077637 149.11385742 -139.59405273 149.54021484 -139.03076172 149.97949219 C-127.82966323 158.80190546 -118.5413564 168.52678342 -116.109375 183.16796875 C-115.32002414 190.20126614 -115.36760358 197.32672312 -115.2578125 204.39648438 C-115.21140625 206.07774414 -115.21140625 206.07774414 -115.1640625 207.79296875 C-115.14424316 208.80512451 -115.12442383 209.81728027 -115.10400391 210.86010742 C-114.62260432 214.12803743 -113.663034 216.05572813 -111.6875 218.6875 C-109.1875 219.4375 -109.1875 219.4375 -106.6875 218.6875 C-100.08881244 211.30645185 -101.31480273 199.76452551 -101.31689453 190.43823242 C-101.31251377 188.25685897 -101.27605843 186.07750301 -101.23828125 183.89648438 C-101.14910906 172.96123944 -103.01325436 164.04580371 -109.1875 154.8125 C-109.7546875 153.94882812 -110.321875 153.08515625 -110.90625 152.1953125 C-114.37791185 147.30757805 -117.93422749 143.40779174 -122.6875 139.75 C-123.285625 139.284729 -123.88375 138.81945801 -124.5 138.34008789 C-132.24523608 132.38964631 -140.30835021 126.87811881 -148.33544922 121.31835938 C-182.02833448 97.95646675 -182.02833448 97.95646675 -185.6875 85.6875 C-187.49016016 72.12946442 -180.01985754 58.65914308 -172.0625 48.25 C-145.74081169 14.77660702 -108.09892798 -9.05762634 -65.59423828 -14.99169922 C-42.69370603 -17.51910552 -18.84027403 -14.13020552 0 0 Z " fill="url(#iconGrad)" transform="translate(574.6875,184.3125)"/>
<path d="M0 0 C0.66 0.33 1.32 0.66 2 1 C-4.66666667 7.66666667 -11.33333333 14.33333333 -18 21 C-18 18 -18 18 -16.34765625 16.00708008 C-15.21650391 14.89949341 -15.21650391 14.89949341 -14.0625 13.76953125 C-13.25039063 12.96708984 -12.43828125 12.16464844 -11.6015625 11.33789062 C-10.74304688 10.50451172 -9.88453125 9.67113281 -9 8.8125 C-7.71222656 7.5450293 -7.71222656 7.5450293 -6.3984375 6.25195312 C-4.2721635 4.16111702 -2.13921536 2.07758017 0 0 Z " fill="url(#iconGrad)" transform="translate(972,544)"/>
<path d="M0 0 C-1.53218685 3.63061667 -3.7183144 5.9863773 -6.5 8.75 C-7.69109375 9.94882812 -7.69109375 9.94882812 -8.90625 11.171875 C-11 13 -11 13 -13 13 C-11.56951306 9.81716656 -9.80982757 7.42084342 -7.5 4.8125 C-6.58734375 3.77029297 -6.58734375 3.77029297 -5.65625 2.70703125 C-3.73667164 0.72859789 -2.7753566 0 0 0 Z " fill="url(#iconGrad)" transform="translate(290,312)"/>
<path d="M0 0 C0.66 0.33 1.32 0.66 2 1 C0.6875 3 0.6875 3 -1 5 C-1.99 5 -2.98 5 -4 5 C-4.2475 5.5775 -4.495 6.155 -4.75 6.75 C-6.16817251 9.30271053 -7.91045129 10.97785609 -10 13 C-10.33 13.66 -10.66 14.32 -11 15 C-11.99 14.67 -12.98 14.34 -14 14 C-12.60919892 12.41224451 -11.21211596 10.82999061 -9.8125 9.25 C-8.64654297 7.92742187 -8.64654297 7.92742187 -7.45703125 6.578125 C-5.11544754 4.12113732 -2.69841735 2.05137234 0 0 Z " fill="url(#iconGrad)" transform="translate(816,336)"/>
<path d="M0 0 C0 2 0 2 -1.6796875 3.7265625 C-2.40414062 4.35304688 -3.12859375 4.97953125 -3.875 5.625 C-4.59429688 6.25664063 -5.31359375 6.88828125 -6.0546875 7.5390625 C-8 9 -8 9 -10 9 C-10.33 9.99 -10.66 10.98 -11 12 C-13.0625 13.6875 -13.0625 13.6875 -15 15 C-15.66 14.67 -16.32 14.34 -17 14 C-3.38297872 0 -3.38297872 0 0 0 Z " fill="url(#iconGrad)" transform="translate(827,548)"/>
<path d="M0 0 C0.66 0.66 1.32 1.32 2 2 C0.75160501 3.105981 -0.49879234 4.20970201 -1.75 5.3125 C-2.44609375 5.92738281 -3.1421875 6.54226563 -3.859375 7.17578125 C-5.85114506 8.87314734 -7.88898915 10.45477809 -10 12 C-10.66 11.67 -11.32 11.34 -12 11 C-8.04 7.37 -4.08 3.74 0 0 Z " fill="url(#iconGrad)" transform="translate(809,563)"/>
<path d="M0 0 C0 3.96130371 -1.34877125 4.82914401 -4 7.6875 C-4.7425 8.49574219 -5.485 9.30398438 -6.25 10.13671875 C-6.8275 10.75160156 -7.405 11.36648438 -8 12 C-8.99 11.67 -9.98 11.34 -11 11 C-7.37 7.37 -3.74 3.74 0 0 Z " fill="url(#iconGrad)" transform="translate(846,527)"/>
<path d="M0 0 C0.66 0.33 1.32 0.66 2 1 C-0.66775205 4.55700273 -3.2825095 7.521673 -7 10 C-7.99 9.67 -8.98 9.34 -10 9 C-6.7 6.03 -3.4 3.06 0 0 Z " fill="url(#iconGrad)" transform="translate(730,814)"/>
<path d="M0 0 C0.33 0.99 0.66 1.98 1 3 C-1.64 5.31 -4.28 7.62 -7 10 C-7.66 9.34 -8.32 8.68 -9 8 C-6.03 5.36 -3.06 2.72 0 0 Z " fill="url(#iconGrad)" transform="translate(952,564)"/>
<path d="M0 0 C0.66 0.33 1.32 0.66 2 1 C-0.8475202 5.05224029 -3.36660757 7.1869334 -8 9 C-8.66 8.67 -9.32 8.34 -10 8 C-9.36191406 7.50628906 -8.72382812 7.01257813 -8.06640625 6.50390625 C-7.24011719 5.86324219 -6.41382813 5.22257813 -5.5625 4.5625 C-4.73878906 3.92441406 -3.91507813 3.28632812 -3.06640625 2.62890625 C-1.12498733 1.16417803 -1.12498733 1.16417803 0 0 Z " fill="url(#iconGrad)" transform="translate(934,579)"/>
<path d="M0 0 C0.66 0.33 1.32 0.66 2 1 C0.66511872 4.59391114 -0.96022723 7.75490696 -3 11 C-3.33 10.34 -3.66 9.68 -4 9 C-3.22265625 6.8359375 -3.22265625 6.8359375 -2.0625 4.375 C-1.68222656 3.55773437 -1.30195312 2.74046875 -0.91015625 1.8984375 C-0.60980469 1.27195312 -0.30945313 0.64546875 0 0 Z " fill="url(#iconGrad)" transform="translate(800,353)"/>
<path d="M0 0 C0.66 0.33 1.32 0.66 2 1 C0.35 2.65 -1.3 4.3 -3 6 C-3.99 5.34 -4.98 4.68 -6 4 C-4.02 2.68 -2.04 1.36 0 0 Z " fill="url(#iconGrad)" transform="translate(836,323)"/>
<path d="M0 0 C0.66 0.33 1.32 0.66 2 1 C-0.31 3.64 -2.62 6.28 -5 9 C-5.66 8.34 -6.32 7.68 -7 7 C-4.69 4.69 -2.38 2.38 0 0 Z " fill="url(#iconGrad)" transform="translate(298,302)"/>
<path d="M0 0 C0.66 0.33 1.32 0.66 2 1 C-0.84936103 4.00765886 -3.23511958 6.27845212 -7 8 C-6.02133662 6.85373678 -5.04205413 5.70800212 -4.0625 4.5625 C-3.51722656 3.92441406 -2.97195313 3.28632812 -2.41015625 2.62890625 C-1.63204305 1.73008851 -0.84063472 0.84063472 0 0 Z " fill="url(#iconGrad)" transform="translate(817,555)"/>
<path d="M0 0 C0.66 0 1.32 0 2 0 C2 0.66 2 1.32 2 2 C1.34 2 0.68 2 0 2 C-0.66 3.65 -1.32 5.3 -2 7 C-2.99 6.67 -3.98 6.34 -5 6 C-3.38405168 3.95880212 -1.7143618 1.95927063 0 0 Z " fill="url(#iconGrad)" transform="translate(984,531)"/>
<path d="M0 0 C-3.3 1.32 -6.6 2.64 -10 4 C-10.33 3.34 -10.66 2.68 -11 2 C-4.5 -1.125 -4.5 -1.125 0 0 Z " fill="url(#iconGrad)" transform="translate(899,282)"/>
<path d="M0 0 C0.99 0.33 1.98 0.66 3 1 C-0.465 3.97 -0.465 3.97 -4 7 C-4.66 6.67 -5.32 6.34 -6 6 C-4.02 4.02 -2.04 2.04 0 0 Z " fill="url(#iconGrad)" transform="translate(550,624)"/>
<path d="M0 0 C0.99 0.33 1.98 0.66 3 1 C1.37660195 2.70884005 -0.29319053 4.37446717 -2 6 C-2.66 6 -3.32 6 -4 6 C-2.84826645 3.53199953 -1.95216435 1.95216435 0 0 Z " fill="url(#iconGrad)" transform="translate(281,319)"/>
<path d="M0 0 C-1.04874998 2.62187494 -1.64931313 3.79371361 -4.125 5.25 C-4.74375 5.4975 -5.3625 5.745 -6 6 C-6 5.01 -6 4.02 -6 3 C-2.66666667 0 -2.66666667 0 0 0 Z " fill="url(#iconGrad)" transform="translate(682,184)"/>
</g>
</svg>
