<?xml version="1.0" encoding="UTF-8"?>
<svg version="1.1" xmlns="http://www.w3.org/2000/svg" width="1024" height="1024">
<path d="M0 0 C19.51060097 -0.74510074 40.17846105 1.42293859 58 10 C58.495 10.99 58.495 10.99 59 12 C59.86109375 12.28617188 60.7221875 12.57234375 61.609375 12.8671875 C65.47655776 14.15921861 68.78874706 16.01582682 72.25 18.125 C72.90967773 18.52460938 73.56935547 18.92421875 74.24902344 19.3359375 C79.87433313 22.80611391 84.95488513 26.73355238 90 31 C91.00804687 31.80179688 92.01609375 32.60359375 93.0546875 33.4296875 C94.06789063 34.23664063 95.08109375 35.04359375 96.125 35.875 C97.05570313 36.61492187 97.98640625 37.35484375 98.9453125 38.1171875 C99.62335938 38.73851562 100.30140625 39.35984375 101 40 C101 40.66 101 41.32 101 42 C101.99 42.33 102.98 42.66 104 43 C105.87234514 45.08691531 107.60341761 47.16098119 109.3125 49.375 C109.80161865 50.0033374 110.2907373 50.6316748 110.79467773 51.27905273 C119.21680619 62.31798193 124.36112216 72.90053488 124 87 C123.19588855 90.40862336 121.87852903 93.05944543 120 96 C119.37931641 97.01126953 119.37931641 97.01126953 118.74609375 98.04296875 C112.23877474 107.62782325 101.82790359 113.5915366 92.125 119.5 C90.00205589 120.81421891 87.8796532 122.12931284 85.7578125 123.4453125 C83.12615781 125.07112044 80.49424258 126.69642282 77.85839844 128.31542969 C66.29092181 135.46133701 58.44113003 143.53265416 54.45581055 156.81347656 C53.49193037 161.43721027 53.77228478 166.23262658 53.75 170.9375 C53.729375 172.02224609 53.70875 173.10699219 53.6875 174.22460938 C53.68234375 175.27326172 53.6771875 176.32191406 53.671875 177.40234375 C53.6625293 178.35616943 53.65318359 179.30999512 53.64355469 180.29272461 C54.06234122 183.47349439 55.19640479 185.37883448 57 188 C60.29075996 187.62095792 60.29075996 187.62095792 63 186 C63.11460117 184.07512476 63.22179009 182.14949629 63.28979492 180.22241211 C63.74062505 167.47128254 64.40562769 155.13189764 73 145 C73.54140625 144.33742188 74.0828125 143.67484375 74.640625 142.9921875 C80.07564054 136.9664094 86.89198789 133.22458919 93.84814453 129.24023438 C106.54811679 121.92053174 118.21305951 114.36290786 129 104.375 C138.17560056 96.03485443 147.20706294 91.40271329 159.76953125 91.69921875 C180.44147837 93.6239345 199.50402736 109.52095379 212.53417969 124.79882812 C214.01801036 126.65336801 215.45645885 128.53257458 216.875 130.4375 C217.38820801 131.12634277 217.90141602 131.81518555 218.43017578 132.52490234 C238.78517889 160.41410567 248.01156858 193.95826209 243.5390625 228.421875 C242.89202482 231.72557325 242.07029188 234.80931855 241 238 C240.58621094 239.24523437 240.17242188 240.49046875 239.74609375 241.7734375 C236.76314349 250.1593885 232.63781113 257.09549834 227 264 C225.96552734 265.30130859 225.96552734 265.30130859 224.91015625 266.62890625 C216.60691019 276.94415045 207.91588121 286.97015676 199.01171875 296.76953125 C197.14261111 298.84188166 195.3178013 300.94519825 193.5 303.0625 C190.21769566 306.83981543 186.68903101 310.32999564 183.125 313.83984375 C181.28858203 315.70664364 179.60031381 317.60522345 177.9375 319.625 C175.2350446 322.86496034 172.20345492 325.53126469 168.9921875 328.2578125 C167.12494265 329.89073643 165.40737604 331.58929139 163.6875 333.375 C158.35039024 338.8102635 152.29229765 343.52038732 146.21484375 348.09765625 C143.60624336 350.33820015 143.28038455 351.63538541 143 355 C145.29314762 355.79873681 146.62005442 356.11016174 148.98046875 355.42578125 C158.8143299 350.46533802 169.26365236 343.91597787 177 336 C178.27524808 334.99954387 179.56801547 334.02112484 180.875 333.0625 C183.26727134 331.2990794 185.58155184 329.51958761 187.875 327.625 C190 326 190 326 192 326 C192.33 324.68 192.66 323.36 193 322 C193.66 322 194.32 322 195 322 C196.39661512 320.80106308 197.73160443 319.52998258 199.03515625 318.23046875 C199.84025635 317.42947754 200.64535645 316.62848633 201.47485352 315.80322266 C202.32877686 314.94003418 203.1827002 314.0768457 204.0625 313.1875 C204.9299585 312.31399902 205.79741699 311.44049805 206.69116211 310.54052734 C213.01996085 304.11329785 218.80538293 297.57947473 224.22753906 290.3671875 C225.10800993 289.19759701 225.99044462 288.02948252 226.87475586 286.86279297 C228.10738359 285.23105702 229.32569347 283.58853319 230.54296875 281.9453125 C234.92809803 276.68873463 239.05417372 273.19755626 246 272 C253.54392394 272.0146484 259.40187305 274.85513208 265.01953125 279.90234375 C287.83603878 304.06894049 297.46133592 341.3460656 297.375 373.6875 C297.37512085 374.38766235 297.3752417 375.08782471 297.37536621 375.8092041 C297.3479521 386.99097372 296.32757448 397.28936965 293 408 C292.71125 409.06089844 292.4225 410.12179687 292.125 411.21484375 C288.16825967 424.65716246 280.47855497 440.57169987 267.91015625 447.76953125 C262.9759127 449.85582215 259.50258373 449.60103349 254.5625 447.625 C249.62561928 444.4427281 246.41009118 439.68312175 243 435 C242.49065918 434.30374512 241.98131836 433.60749023 241.45654297 432.89013672 C238.63770214 429.02867724 235.83553272 425.15564473 233.05078125 421.26953125 C232.53660645 420.5523291 232.02243164 419.83512695 231.49267578 419.09619141 C230.5150976 417.72336082 229.54442905 416.34557743 228.58154297 414.96240234 C225.12088535 410.007782 225.12088535 410.007782 220 407 C216.67039895 407.22663015 216.67039895 407.22663015 214 409 C214.20202732 415.4325498 216.49753434 418.53892929 220.4375 423.25 C226.07309233 430.31486828 231.32084474 437.60203708 236.36380005 445.0970459 C237.15318964 446.26789641 237.94709351 447.43571799 238.74581909 448.60021973 C251.66591148 467.46191654 253.82025478 485.94962988 249.98046875 508.04296875 C248.57009319 515.54207446 246.42325257 522.77278796 244 530 C243.63132812 531.11761719 243.26265625 532.23523438 242.8828125 533.38671875 C231.14325616 566.29795772 204.45996285 595.96589224 173 611 C160.6116688 616.09610897 147.5695864 618.22783456 134.8515625 613.140625 C127.51053825 609.48336382 121.82888002 603.65383857 116 598 C115.38898438 597.43539062 114.77796875 596.87078125 114.1484375 596.2890625 C113 595 113 595 113 593 C112.01 592.67 111.02 592.34 110 592 C108.45703125 590.46875 108.45703125 590.46875 106.8125 588.5 C106.20535156 587.78714844 105.59820313 587.07429687 104.97265625 586.33984375 C104.32167969 585.56769531 103.67070313 584.79554688 103 584 C101.59081171 582.34775905 100.1742229 580.70179892 98.75 579.0625 C98.10546875 578.31097656 97.4609375 577.55945313 96.796875 576.78515625 C95.02659019 574.76203836 95.02659019 574.76203836 92 574 C89.83284443 574.87483915 89.83284443 574.87483915 88 576 C88.23046136 582.78974617 90.98482275 586.1287269 95.375 591.125 C96.0047876 591.86564697 96.6345752 592.60629395 97.28344727 593.36938477 C99.17600464 595.59112416 101.0859889 597.79673809 103 600 C125.52256862 626.17597417 125.52256862 626.17597417 125.27734375 640.5625 C123.27220026 658.18516956 111.12163408 669.02259957 98.34375 679.94140625 C95.08016064 682.80792557 91.91923258 685.77990846 88.75 688.75 C79.61937218 697.30067123 70.47471312 705.82929792 61 714 C59.9400172 714.92568167 58.88013 715.85147283 57.8203125 716.77734375 C41.71314957 730.79604315 26.69671726 742.70990524 4.32421875 742.2421875 C-12.43209769 741.02139829 -25.04263113 732.00980379 -37 721 C-37.79792969 720.27296875 -38.59585938 719.5459375 -39.41796875 718.796875 C-43.31181282 715.08566902 -46.32708626 711.34196748 -48.9921875 706.6640625 C-50.01492998 704.82605353 -50.01492998 704.82605353 -52 703 C-52.66 702.34 -53.32 701.68 -54 701 C-54 700.01 -54 699.02 -54 698 C-54.66 698 -55.32 698 -56 698 C-57.86106381 632.63508326 -57.86106381 632.63508326 -56 600 C-55.34 600 -54.68 600 -54 600 C-53.74476563 598.83210937 -53.48953125 597.66421875 -53.2265625 596.4609375 C-52.1477355 592.16641252 -50.49673013 588.49572388 -48.375 584.625 C-48.02308594 583.97724609 -47.67117188 583.32949219 -47.30859375 582.66210938 C-42.69042693 574.38720905 -37.07753788 567.51228787 -29.76171875 561.47265625 C-26.99005591 559.15576736 -25.01714804 557.02572206 -23 554 C-22.34 554 -21.68 554 -21 554 C-19.0294132 552.43743348 -17.13793951 550.84526379 -15.25 549.1875 C-10.60060399 545.16814406 -5.87331937 541.30647731 -1 537.5625 C5.02054481 532.90923074 10.60491902 527.89136788 16.13671875 522.671875 C18.45516745 520.50841128 20.80293315 518.45097252 23.25 516.4375 C26.20073629 514.23143779 26.20073629 514.23143779 27 511 C26.01 510.67 25.02 510.34 24 510 C24.33 509.34 24.66 508.68 25 508 C21.87709365 508.48578543 19.00419641 508.9986012 16 510 C15.67 510.66 15.34 511.32 15 512 C13.55084142 512.98324956 12.06336873 513.91015122 10.5625 514.8125 C5.45068671 517.99507952 0.60033509 521.43392455 -4.25 525 C-11.46673219 530.27730362 -18.83180923 535.29182188 -26.3125 540.1875 C-27.29702148 540.83525391 -28.28154297 541.48300781 -29.29589844 542.15039062 C-30.22563477 542.75431641 -31.15537109 543.35824219 -32.11328125 543.98046875 C-33.34751831 544.78327271 -33.34751831 544.78327271 -34.60668945 545.60229492 C-39.23740082 548.30665304 -42.41917016 549.23370436 -47.83984375 548.77734375 C-51.26851137 547.54351942 -53.83166344 545.90575538 -56 543 C-56.89000846 539.37657482 -56.78934446 535.82577878 -56.72875977 532.11035156 C-56.7344548 531.01217102 -56.74014984 529.91399048 -56.74601746 528.78253174 C-56.75713326 525.15124275 -56.72503563 521.52175415 -56.69140625 517.890625 C-56.68782883 515.36342582 -56.68647179 512.8362226 -56.6872406 510.309021 C-56.68254679 505.00945196 -56.65842427 499.71050496 -56.61743164 494.41113281 C-56.57035418 488.30297068 -56.55443415 482.19537452 -56.5566383 476.087044 C-56.55847696 470.19394437 -56.5427563 464.30100627 -56.51826286 458.40795135 C-56.50873982 455.90900523 -56.50280931 453.41004268 -56.50058174 450.91107941 C-56.49404539 447.4095127 -56.46771286 443.90864244 -56.43579102 440.40722656 C-56.43715057 439.38145508 -56.43851013 438.35568359 -56.43991089 437.29882812 C-56.30802671 427.35867486 -54.15191631 420.2627056 -47.23828125 413.0078125 C-43.78984512 409.91445095 -40.22002965 407.86669126 -36 406 C-34.95392578 405.48759766 -34.95392578 405.48759766 -33.88671875 404.96484375 C-26.43080882 401.81618709 -18.82816487 403.1766749 -11.4140625 405.9765625 C-7.46415126 407.95825858 -4.59189019 410.25401381 -1.7734375 413.6484375 C2.09254077 418.17302568 6.2561678 422.33208608 10.5 426.5 C15.30950624 431.22346856 19.93693074 436.0006955 24.33398438 441.11132812 C26.92181396 444.04501067 29.70120768 446.76930482 32.5 449.5 C35.8885386 452.8060924 39.16035985 456.14190414 42.2421875 459.73828125 C46.7732662 464.98102799 51.70529574 469.81258297 56.625 474.6875 C57.553125 475.61111328 58.48125 476.53472656 59.4375 477.48632812 C61.16240902 479.20258788 62.88835167 480.91780997 64.61572266 482.6315918 C66.30027522 484.30493241 67.98053161 485.98260328 69.65771484 487.66333008 C71.1895306 489.19147357 72.74062613 490.70059228 74.3125 492.1875 C76 494 76 494 76 496 C76.66 496 77.32 496 78 496 C79.89268584 497.999819 81.59885766 500.12063985 83.34375 502.25 C83.8903125 502.8275 84.436875 503.405 85 504 C85.66 504 86.32 504 87 504 C87.89541873 505.37756727 88.78801306 506.75703557 89.66796875 508.14453125 C93.70796295 513.77208915 99.31287089 519.80306594 106.19023132 521.55931091 C109.58613534 522.0919305 112.83032482 522.11946403 116.26879883 522.11352539 C116.98153961 522.11367142 117.6942804 522.11381744 118.42861938 522.1139679 C120.7714549 522.11327432 123.11420972 522.105508 125.45703125 522.09765625 C127.08656267 522.0957901 128.71609465 522.09436713 130.34562683 522.09336853 C134.62488364 522.08955888 138.90410626 522.07974188 143.18334961 522.06866455 C147.55386899 522.05841702 151.92439393 522.05386376 156.29492188 522.04882812 C164.8632969 522.03811818 173.43164419 522.02106045 182 522 C181.67 520.02 181.34 518.04 181 516 C180.34 516 179.68 516 179 516 C177.64499081 514.68870078 176.31328657 513.35308313 175 512 C174.01 511.34 173.02 510.68 172 510 C171.08460059 509.0027785 170.20404423 507.97299296 169.35107422 506.921875 C165.60133265 502.45417139 161.51032551 498.36673425 157.3828125 494.25 C156.56682587 493.43305664 155.75083923 492.61611328 154.91012573 491.77441406 C153.1918007 490.05541164 151.47222464 488.33765893 149.75146484 486.62109375 C147.13655299 484.01152936 144.52700999 481.39668234 141.91796875 478.78125 C140.23990378 477.10384603 138.56152854 475.42675239 136.8828125 473.75 C136.1117215 472.97688477 135.34063049 472.20376953 134.5461731 471.40722656 C130.39566222 467.274376 126.16557317 463.30424689 121.71046448 459.50057983 C118.37776844 456.57682636 115.41954981 453.27421967 112.39453125 450.0390625 C109.82954449 447.85484866 108.30926607 447.3174074 105 447 C104.91242432 446.42419189 104.82484863 445.84838379 104.73461914 445.25512695 C103.79700788 442.37685668 102.39681644 441.03989266 100.24609375 438.91796875 C99.0869043 437.76651367 99.0869043 437.76651367 97.90429688 436.59179688 C97.09025391 435.79837891 96.27621094 435.00496094 95.4375 434.1875 C94.65052734 433.40568359 93.86355469 432.62386719 93.05273438 431.81835938 C88.1909796 427.02073327 83.19253704 422.43604768 78 418 C76.60416667 416.79166667 75.20833333 415.58333333 73.8125 414.375 C72.89404297 413.58222656 72.89404297 413.58222656 71.95703125 412.7734375 C69.55277658 410.59473168 67.28260076 408.30599492 65 406 C63.94850183 404.94733183 62.89638829 403.89527808 61.84375 402.84375 C55.15625 396.15625 55.15625 396.15625 53.53833008 394.53588867 C52.12899206 393.12878735 50.71138557 391.72998029 49.29296875 390.33203125 C43.90355768 384.85080739 39.95790119 379.76636814 39 372 C38.90589844 371.28972656 38.81179688 370.57945312 38.71484375 369.84765625 C38.20596105 362.42318818 41.08399062 356.44449722 45.83203125 350.8359375 C49.6203962 346.96537923 53.73015239 343.45918516 57.84375 339.94140625 C61.36115714 336.7744654 64.61689197 333.34994657 67.8984375 329.94140625 C70 328 70 328 72 328 C72 327.34 72 326.68 72 326 C73.375 324.375 73.375 324.375 75 323 C75.66 323 76.32 323 77 323 C77.33 322.01 77.66 321.02 78 320 C79.40463257 318.61413574 79.40463257 318.61413574 81.27490234 317.09179688 C87.37686104 311.90888024 92.95052569 306.19351199 98.6015625 300.53125 C99.80872284 299.32476481 101.01603145 298.11842797 102.22348022 296.91223145 C104.74143379 294.39574436 107.25758993 291.87747771 109.77246094 289.35791016 C112.98099453 286.14367377 116.19400601 282.93395701 119.40838051 279.72556305 C121.89816905 277.23940329 124.38555219 274.75084788 126.87223434 272.26158142 C128.05553372 271.0776195 129.23956379 269.89438735 130.424366 268.71192932 C136.16716173 262.97800911 141.81070033 257.24939255 147 251 C148.23589166 249.85685819 149.49876901 248.74026411 150.8125 247.6875 C153.31965465 245.68613002 153.31965465 245.68613002 155 243 C155.66 243 156.32 243 157 243 C157.25136719 242.42121094 157.50273438 241.84242188 157.76171875 241.24609375 C159.15592914 238.71716323 160.73790358 237.0656954 162.8125 235.0625 C163.47894531 234.41410156 164.14539063 233.76570312 164.83203125 233.09765625 C165.90517578 232.05931641 165.90517578 232.05931641 167 231 C167.78761719 230.21238281 168.57523438 229.42476562 169.38671875 228.61328125 C171.22624842 226.77375158 173.07433915 224.94795844 174.9375 223.1328125 C182.75983788 215.70686507 182.75983788 215.70686507 189 207 C188.66631709 204.85044326 188.66631709 204.85044326 188 203 C179.68795257 202.18081733 171.47095422 201.8519582 163.12109375 201.8671875 C161.94660172 201.86623077 160.77210968 201.86527405 159.56202698 201.86428833 C157.10409491 201.86361303 154.64616098 201.86542151 152.18823242 201.86962891 C148.41646385 201.87503012 144.64481201 201.86963967 140.87304688 201.86328125 C138.47656224 201.8639413 136.08007767 201.86522094 133.68359375 201.8671875 C132.55553818 201.86516327 131.4274826 201.86313904 130.26524353 201.86105347 C128.70200096 201.86578171 128.70200096 201.86578171 127.10717773 201.87060547 C126.19072983 201.87140106 125.27428192 201.87219666 124.33006287 201.87301636 C121.84269664 201.90569305 121.84269664 201.90569305 119 203 C118.67 202.67 118.34 202.34 118 202 C110.26705271 203.07168563 106.21683803 208.18235853 101 213.625 C100.13632812 214.50285156 99.27265625 215.38070312 98.3828125 216.28515625 C93.92949001 220.83999825 89.61066719 225.47842363 85.47265625 230.32177734 C84.03264926 231.96279327 82.63006829 233.54593023 81 235 C80.34 235 79.68 235 79 235 C79 235.66 79 236.32 79 237 C78.34 237 77.68 237 77 237 C76.67 237.99 76.34 238.98 76 240 C75.34 240 74.68 240 74 240 C73.60011242 240.88703047 73.60011242 240.88703047 73.1921463 241.79198074 C71.97490256 244.04648391 70.72986544 245.52162212 68.92565918 247.32830811 C68.29473862 247.96486832 67.66381805 248.60142853 67.01377869 249.25727844 C65.97731956 250.28766487 65.97731956 250.28766487 64.91992188 251.33886719 C64.19132462 252.07096909 63.46272736 252.80307098 62.71205139 253.55735779 C60.30262525 255.97558618 57.88595735 258.38642632 55.46875 260.796875 C53.79458804 262.47238374 52.12072311 264.14818932 50.44714355 265.82427979 C46.93985003 269.33452229 43.42896281 272.84112019 39.91552734 276.34521484 C35.40243278 280.84689752 30.89839828 285.3575214 26.39699554 289.87089157 C22.94348249 293.33161425 19.48524158 296.78758064 16.02552795 300.24210358 C14.36219761 301.90409585 12.70036241 303.5675858 11.0400238 305.23256683 C8.72483328 307.55280969 6.40337515 309.86658924 4.08007812 312.17871094 C3.38910538 312.87373215 2.69813263 313.56875336 1.98622131 314.28483582 C1.35530075 314.91011673 0.72438019 315.53539764 0.07434082 316.17962646 C-0.47429375 316.72750698 -1.02292831 317.2753875 -1.58818817 317.83987045 C-3 319 -3 319 -5 319 C-5.25420715 319.59186096 -5.50841431 320.18372192 -5.77032471 320.79351807 C-7.13359256 323.23971334 -8.52077763 324.52976339 -10.67480469 326.30371094 C-14.72465851 329.7340546 -18.4777521 333.36393121 -22.203125 337.140625 C-23.17073761 338.11391754 -23.17073761 338.11391754 -24.15789795 339.10687256 C-26.19108252 341.15213411 -28.22094848 343.20063863 -30.25 345.25 C-32.93980189 347.96644615 -35.63293812 350.67952283 -38.328125 353.390625 C-38.9385968 354.00939514 -39.5490686 354.62816528 -40.17803955 355.26568604 C-47.71617482 362.84716367 -47.71617482 362.84716367 -51.625 363.3125 C-54 363 -54 363 -56 361 C-57.05881438 354.26464563 -57.14200833 347.61050346 -57.12698364 340.80445862 C-57.12854363 339.70847082 -57.13010362 338.61248301 -57.13171089 337.48328346 C-57.13568531 333.82681379 -57.13254488 330.17038597 -57.12939453 326.51391602 C-57.13075028 323.88485693 -57.13253119 321.25579804 -57.13470459 318.6267395 C-57.13914367 312.23239905 -57.13819336 305.83807037 -57.13529195 299.44372947 C-57.13302725 294.23487952 -57.13273002 289.02603284 -57.13381577 283.81718254 C-57.133969 283.07378585 -57.13412223 282.33038916 -57.13428011 281.5644653 C-57.13459987 280.05372111 -57.13492408 278.54297693 -57.1352527 277.03223275 C-57.13810291 262.8700649 -57.1348294 248.70790352 -57.12945233 234.54573672 C-57.12500039 222.44739869 -57.12574777 210.34907027 -57.13037109 198.25073242 C-57.13575215 184.16321957 -57.13781184 170.07571243 -57.13475883 155.9881987 C-57.13444034 154.47802762 -57.13412596 152.96785655 -57.13381577 151.45768547 C-57.13366149 150.71492499 -57.13350721 149.97216452 -57.13334826 149.20689614 C-57.13249247 144.02525909 -57.13392589 138.8436257 -57.13629532 133.66198921 C-57.13913363 127.31578945 -57.13827244 120.96960201 -57.13301457 114.62340362 C-57.13042849 111.39791277 -57.12984339 108.17244596 -57.13266373 104.94695473 C-57.14268812 92.30118258 -57.05296349 79.66049698 -56.67941284 67.01963806 C-56.65743493 65.98654308 -56.63545702 64.9534481 -56.61281312 63.88904721 C-55.96739316 45.54245122 -48.8723871 30.60674413 -35.76171875 17.81640625 C-26.76926748 10.06325079 -12.25390432 1.25733913 0 2 C0 1.34 0 0.68 0 0 Z M-55 694 C-54 697 -54 697 -54 697 Z " fill="#010202" transform="translate(584,136)"/>
<path d="M0 0 C3.49428764 2.9519742 6.67597934 6.18737775 9.86083984 9.46386719 C13.86997128 13.57053515 18.1104241 17.21882866 22.60546875 20.79296875 C25.71167794 23.27879181 28.73209306 25.85061385 31.75390625 28.4375 C39.68749727 35.19150218 47.88256075 41.60605884 56.1796875 47.90625 C56.77974609 48.36314209 57.37980469 48.82003418 57.99804688 49.29077148 C59.14361648 50.16125784 60.2919394 51.02813611 61.44335938 51.89086914 C65.33087272 54.84143294 65.33087272 54.84143294 66.44140625 57.0625 C66.59679596 59.04228683 66.69166791 61.02694502 66.7578125 63.01171875 C66.8206543 64.85612549 66.8206543 64.85612549 66.88476562 66.73779297 C66.92477998 68.07518635 66.96448663 69.41258896 67.00390625 70.75 C67.0361731 71.76033295 67.0361731 71.76033295 67.0690918 72.79107666 C67.35271321 81.67480578 67.49158664 90.5487279 67.44140625 99.4375 C67.36775597 124.50242218 70.6947385 141.31601998 88.44140625 160.0625 C89.02921875 160.6915625 89.61703125 161.320625 90.22265625 161.96875 C94.06289365 165.95390201 98.23367892 169.36274167 102.5859375 172.7734375 C105.85845896 175.3968268 109.02371415 178.12692198 112.19140625 180.875 C117.43191238 185.40906536 122.79149317 189.74368577 128.26513672 193.99194336 C132.74354146 197.48035208 137.08752639 201.10200631 141.39990234 204.79272461 C145.74715935 208.50346121 150.17835913 212.10165738 154.62890625 215.6875 C160.74440576 220.62914223 166.69584865 225.69072403 172.44140625 231.0625 C173.07304687 231.61808594 173.7046875 232.17367187 174.35546875 232.74609375 C185.65879223 243.12822126 189.34605537 256.89009121 191.56640625 271.5 C191.89953139 273.64496991 192.23533075 275.78952677 192.57421875 277.93359375 C192.71746582 278.87130615 192.86071289 279.80901855 193.00830078 280.77514648 C193.33722148 283.08163451 193.33722148 283.08163451 194.44140625 285.0625 C194.6252286 287.58641 194.76659225 290.09793492 194.87890625 292.625 C195.19625853 298.65200383 195.8805863 304.20942521 197.44140625 310.0625 C197.77693211 311.39528329 198.11085141 312.72847512 198.44140625 314.0625 C200.75140625 313.7325 203.06140625 313.4025 205.44140625 313.0625 C208.43303622 305.43999077 209.17385027 298.33074518 209.62890625 290.1875 C209.70713623 288.87628174 209.78536621 287.56506348 209.8659668 286.21411133 C212.55505243 254.99109704 212.55505243 254.99109704 205.44140625 225.0625 C204.78140625 224.7325 204.12140625 224.4025 203.44140625 224.0625 C203.77140625 223.0725 204.10140625 222.0825 204.44140625 221.0625 C197.95890168 204.76130651 183.87133359 192.48404331 170.3046875 182.06640625 C165.25649465 178.17702994 160.37206235 174.0895229 155.47827148 170.00878906 C152.06319984 167.1735112 148.62300439 164.37205772 145.12109375 161.64453125 C144.48671387 161.14800049 143.85233398 160.65146973 143.19873047 160.13989258 C141.35869075 158.80116204 141.35869075 158.80116204 138.44140625 159.0625 C138.44140625 158.0725 138.44140625 157.0825 138.44140625 156.0625 C136.52944009 153.74082681 135.28888308 152.26190631 132.31640625 151.5625 C131.69765625 151.3975 131.07890625 151.2325 130.44140625 151.0625 C129.75520594 149.73911368 129.09354164 148.40300052 128.44140625 147.0625 C126.90950672 145.45235829 125.31618136 143.93729233 123.68359375 142.4296875 C122.44140625 141.0625 122.44140625 141.0625 122.44140625 139.0625 C121.78140625 139.0625 121.12140625 139.0625 120.44140625 139.0625 C119.78140625 138.0725 119.12140625 137.0825 118.44140625 136.0625 C117.78140625 135.7325 117.12140625 135.4025 116.44140625 135.0625 C116.64765625 134.546875 116.85390625 134.03125 117.06640625 133.5 C117.64707884 130.96851764 117.64707884 130.96851764 116.50390625 128.28125 C114.74660723 122.38935352 114.95918655 116.22445444 114.81640625 110.125 C114.79838959 109.44530151 114.78037292 108.76560303 114.7618103 108.06530762 C114.45603817 96.5269504 114.31666723 84.98447831 114.26617432 73.44235229 C114.25808246 71.7077368 114.24703948 69.97313223 114.23284912 68.23855591 C114.16240686 58.64155322 114.37441149 49.49221209 116.44140625 40.0625 C118.75140625 39.4025 121.06140625 38.7425 123.44140625 38.0625 C123.44140625 38.7225 123.44140625 39.3825 123.44140625 40.0625 C123.96992188 40.29195313 124.4984375 40.52140625 125.04296875 40.7578125 C128.22935467 42.49112341 130.98722918 44.68691089 133.81640625 46.9375 C134.42129883 47.41493652 135.02619141 47.89237305 135.64941406 48.38427734 C140.87994701 52.54523509 145.96413959 56.86854932 150.99755859 61.26513672 C154.01953195 63.94967792 154.01953195 63.94967792 157.44140625 66.0625 C157.44140625 66.7225 157.44140625 67.3825 157.44140625 68.0625 C157.97507812 68.2790625 158.50875 68.495625 159.05859375 68.71875 C162.30930847 70.55193994 164.86983273 73.01710283 167.56640625 75.5625 C168.1397168 76.09931396 168.71302734 76.63612793 169.30371094 77.18920898 C171.02318117 78.80653484 172.7339201 80.43253473 174.44140625 82.0625 C175.35148438 82.93003906 176.2615625 83.79757812 177.19921875 84.69140625 C187.00570691 94.26733434 195.15725501 105.18517112 203.44140625 116.0625 C204.08980469 116.8978125 204.73820312 117.733125 205.40625 118.59375 C205.95410156 119.3053125 206.50195312 120.016875 207.06640625 120.75 C207.53304688 121.35199219 207.9996875 121.95398438 208.48046875 122.57421875 C209.44140625 124.0625 209.44140625 124.0625 209.44140625 126.0625 C210.03953125 125.8975 210.63765625 125.7325 211.25390625 125.5625 C213.69002235 125.00567346 215.95370011 125.0625 218.44140625 125.0625 C219.88039306 123.48546369 219.88039306 123.48546369 221.37890625 121.375 C224.96037459 116.62484198 228.75246107 112.0971717 232.62084961 107.58129883 C234.54625329 105.32725992 236.42173674 103.09006439 238.14453125 100.67578125 C238.5725 100.14339844 239.00046875 99.61101562 239.44140625 99.0625 C240.10140625 99.0625 240.76140625 99.0625 241.44140625 99.0625 C241.70928955 98.46791992 241.97717285 97.87333984 242.25317383 97.26074219 C243.45351298 95.04010243 244.64843623 93.6381393 246.453125 91.890625 C247.042146 91.31320557 247.63116699 90.73578613 248.23803711 90.14086914 C248.86202393 89.53750732 249.48601074 88.93414551 250.12890625 88.3125 C255.68603962 82.89056996 255.68603962 82.89056996 260.87890625 77.125 C264.4529335 72.98406173 268.26809928 69.12180773 272.12890625 65.25 C272.78366943 64.5907251 273.43843262 63.9314502 274.11303711 63.25219727 C274.74089111 62.62627686 275.36874512 62.00035645 276.015625 61.35546875 C276.57854248 60.7936792 277.14145996 60.23188965 277.72143555 59.65307617 C279.55842989 57.95428013 281.33914186 56.42408929 283.44140625 55.0625 C286.06640625 55.5625 286.06640625 55.5625 288.44140625 57.0625 C290.40246744 60.81522839 290.56955275 63.41053805 290.00390625 67.5625 C289.47747112 71.4726643 289.47747112 71.4726643 289.96875 75.34375 C290.44140625 78.0625 290.44140625 78.0625 289.97924805 81.67578125 C289.09947278 89.07354814 289.29779685 96.53050255 289.30859375 103.96875 C289.30791836 105.61910008 289.30694638 107.26945006 289.30569458 108.9197998 C289.30422538 112.37264964 289.30634486 115.82547351 289.31103516 119.27832031 C289.31669597 123.65392408 289.31347174 128.029466 289.30746269 132.40506744 C289.30380511 135.81478316 289.3050198 139.22448485 289.30759048 142.63420105 C289.30824736 144.24456286 289.30747589 145.85492604 289.30511093 147.46528625 C289.3025018 149.74316653 289.30653856 152.02095453 289.31201172 154.29882812 C289.31280731 155.58406372 289.31360291 156.86929932 289.31442261 158.19348145 C289.36570845 161.6654139 289.56791322 165.11672801 289.80021417 168.58094621 C290.55385622 179.99161594 290.59694807 191.3755324 290.60253906 202.80761719 C290.60717886 205.04516174 290.61220504 207.28270552 290.61758423 209.52024841 C290.63058789 215.54678161 290.63712796 221.57330374 290.64159489 227.59984875 C290.64454179 231.37286461 290.64864923 235.14587754 290.65309906 238.91889191 C290.66517929 249.39887709 290.67557391 259.87886055 290.67897415 270.35885239 C290.67919372 271.026068 290.67941328 271.69328362 290.6796395 272.38071789 C290.67985778 273.0493423 290.68007606 273.71796672 290.68030095 274.40685248 C290.68074439 275.7613066 290.68119095 277.11576072 290.68164062 278.47021484 C290.68186205 279.14204206 290.68208348 279.81386929 290.68231162 280.50605491 C290.68626562 291.40848595 290.70375064 302.31085043 290.72700015 313.21325573 C290.75076585 324.44957106 290.76292053 335.68585414 290.76434207 346.92219853 C290.76538726 353.21408917 290.77123584 359.50588526 290.78916168 365.79775238 C290.80568591 371.71093739 290.80777673 377.62395713 290.79902267 383.53715706 C290.79825497 385.69899248 290.80255965 387.86083697 290.81248093 390.02264977 C290.89798499 409.82314559 290.89798499 409.82314559 288.08512497 419.51190567 C287.42430425 422.13026294 287.32650785 424.37403125 287.44140625 427.0625 C286.45140625 427.3925 285.46140625 427.7225 284.44140625 428.0625 C283.11339985 429.81924121 283.11339985 429.81924121 281.87890625 432 C272.75174963 446.13814457 258.02186866 457.08127551 242.44140625 463.0625 C241.75949219 463.32804687 241.07757813 463.59359375 240.375 463.8671875 C227.13241145 468.04303616 212.99889796 464.5412732 201.00390625 458.5 C193.94428444 454.42201817 187.70466035 449.24844673 181.44140625 444.0625 C180.87067383 443.59086426 180.29994141 443.11922852 179.71191406 442.63330078 C173.37719934 437.37741599 167.18856921 431.9746936 161.09765625 426.4375 C157.35731133 423.0931916 153.53350856 419.84962328 149.71020508 416.60083008 C144.86774294 412.47016274 140.18612081 408.18918411 135.55078125 403.828125 C133.64426517 401.848547 133.64426517 401.848547 131.44140625 402.0625 C131.35890625 401.44375 131.27640625 400.825 131.19140625 400.1875 C130.19762978 397.37179999 129.06718027 397.33732369 126.44140625 396.0625 C115.66166615 387.29175512 105.98173794 376.34783418 104.44140625 362.0625 C104.1958779 358.69449151 104.21002739 355.43094573 104.44140625 352.0625 C104.48652344 351.37929688 104.53164063 350.69609375 104.578125 349.9921875 C106.71431553 335.39950936 118.95497428 321.5557195 127.05664062 309.64306641 C130.76381543 304.17830831 134.34375296 298.74727837 137.36230469 292.86499023 C138.51391422 290.94138544 139.83432457 289.61349561 141.44140625 288.0625 C142.90806068 285.71342278 142.90806068 285.71342278 144.19140625 283.125 C144.86429687 281.84302734 144.86429687 281.84302734 145.55078125 280.53515625 C146.52518027 277.82991687 146.44719929 276.70577318 145.44140625 274.0625 C143.20157125 273.11229584 143.20157125 273.11229584 140.44140625 273.0625 C136.63516274 276.40152867 133.6945944 280.24018805 130.81640625 284.375 C130.3889209 284.98037598 129.96143555 285.58575195 129.52099609 286.20947266 C126.78499068 290.09748034 124.10050092 294.01976295 121.4230957 297.94824219 C117.11285058 304.26817692 112.71256386 310.49960573 108.12890625 316.625 C107.64953613 317.26743652 107.17016602 317.90987305 106.67626953 318.57177734 C97.2424825 331.07505548 97.2424825 331.07505548 91.31640625 334.4375 C90.07503906 335.16066406 90.07503906 335.16066406 88.80859375 335.8984375 C81.09621104 339.69099534 72.09117409 338.87404299 64.12890625 336.25 C62.2247629 335.54281815 60.32791161 334.81547116 58.44140625 334.0625 C57.69117188 333.77761719 56.9409375 333.49273438 56.16796875 333.19921875 C51.60104001 331.38176752 51.60104001 331.38176752 50.44140625 329.0625 C49.71953125 328.77375 48.99765625 328.485 48.25390625 328.1875 C44.96309277 326.87117461 42.33819369 325.09641458 39.44140625 323.0625 C38.65765625 322.52625 37.87390625 321.99 37.06640625 321.4375 C36.53015625 320.98375 35.99390625 320.53 35.44140625 320.0625 C35.44140625 319.4025 35.44140625 318.7425 35.44140625 318.0625 C34.91289062 317.85882812 34.384375 317.65515625 33.83984375 317.4453125 C30.39177765 315.45733954 27.84635347 312.761251 25.06640625 309.9375 C24.48785889 309.35653564 23.90931152 308.77557129 23.31323242 308.17700195 C20.21353206 305.02034597 17.35285167 301.84209082 14.75390625 298.25 C13.99078125 297.198125 13.22765625 296.14625 12.44140625 295.0625 C11.78140625 295.0625 11.12140625 295.0625 10.44140625 295.0625 C10.31902588 294.47227051 10.19664551 293.88204102 10.07055664 293.27392578 C9.07180371 289.76336929 6.89781904 286.93649756 4.87890625 283.9375 C0.44140625 277.32501897 0.44140625 277.32501897 0.44140625 275.0625 C-0.21859375 274.7325 -0.87859375 274.4025 -1.55859375 274.0625 C-1.55859375 273.0725 -1.55859375 272.0825 -1.55859375 271.0625 C-2.21859375 270.7325 -2.87859375 270.4025 -3.55859375 270.0625 C-4.50427958 267.90461688 -5.3681142 265.71037878 -6.18359375 263.5 C-6.62960938 262.30246094 -7.075625 261.10492187 -7.53515625 259.87109375 C-7.87289062 258.94425781 -8.210625 258.01742188 -8.55859375 257.0625 C-9.21859375 257.0625 -9.87859375 257.0625 -10.55859375 257.0625 C-10.22859375 256.0725 -9.89859375 255.0825 -9.55859375 254.0625 C-9.93952945 251.89665396 -9.93952945 251.89665396 -10.703125 249.5625 C-10.96714111 248.68126465 -11.23115723 247.8000293 -11.50317383 246.89208984 C-11.7895874 245.9583252 -12.07600098 245.02456055 -12.37109375 244.0625 C-19.25292822 220.66937648 -22.1277689 195.8283372 -11.12890625 173.109375 C-4.13376412 160.3239956 6.28073073 148.16961701 18.44140625 140.0625 C18.77484176 137.52042029 18.77484176 137.52042029 18.44140625 135.0625 C17.37206873 133.80826241 17.37206873 133.80826241 14.94140625 133.5625 C9.51732067 134.33736937 6.47810065 137.51341853 2.44140625 141.0625 C1.47460938 141.89652344 0.5078125 142.73054687 -0.48828125 143.58984375 C-6.43837686 148.8205611 -11.65612752 154.27126228 -16.5234375 160.5546875 C-23.95251247 169.70913305 -23.95251247 169.70913305 -30.24609375 170.5625 C-35.55956685 170.40622138 -38.92943497 167.76159974 -42.55859375 164.0625 C-44.0443859 162.03129048 -45.33137333 159.99692565 -46.55078125 157.796875 C-47.55903482 155.89131251 -47.55903482 155.89131251 -49.55859375 154.0625 C-50.23446307 152.62042064 -50.8522248 151.15066978 -51.43359375 149.66796875 C-51.7790625 148.79462891 -52.12453125 147.92128906 -52.48046875 147.02148438 C-52.83625 146.10689453 -53.19203125 145.19230469 -53.55859375 144.25 C-54.09226563 142.89551758 -54.09226563 142.89551758 -54.63671875 141.51367188 C-55.30314862 139.82148707 -55.96744741 138.12846029 -56.62890625 136.43432617 C-56.93570313 135.65162354 -57.2425 134.8689209 -57.55859375 134.0625 C-57.88601562 133.17989502 -58.2134375 132.29729004 -58.55078125 131.38793945 C-59.44736092 128.9286543 -59.44736092 128.9286543 -61.55859375 127.0625 C-61.23472702 125.06094524 -60.89955092 123.06121442 -60.55859375 121.0625 C-60.79804201 118.67902653 -61.11830622 116.30299315 -61.49609375 113.9375 C-66.43141633 78.62619619 -58.28968402 38.8371194 -36.62109375 10.0625 C-27.02123928 -2.18527292 -14.1742045 -10.25472882 0 0 Z " fill="#020202" transform="translate(205.55859375,412.9375)"/>
<path d="M0 0 C0.33 0.66 0.66 1.32 1 2 C2.89588991 2.62898235 4.81883565 3.17698885 6.75 3.6875 C24.48941752 8.95875236 37.58328541 19.64253393 46.5703125 35.828125 C49.52435796 42.01923825 51.34100879 48.36403516 53 55 C53.33 55.99 53.66 56.98 54 58 C54.10178067 60.47121765 54.14781155 62.91451279 54.14717102 65.38598633 C54.15084771 66.14441267 54.1545244 66.90283901 54.1583125 67.68424797 C54.16935259 70.23351587 54.17319379 72.78274301 54.17700195 75.33203125 C54.18326655 77.15696848 54.18991335 78.98190444 54.19691467 80.80683899 C54.21796459 86.80871694 54.22832053 92.81059517 54.23828125 98.8125 C54.24232899 100.87978122 54.24644592 102.94706231 54.25063133 105.01434326 C54.26968803 114.73038614 54.28391592 124.44642142 54.2922433 134.1624794 C54.30200648 145.36838906 54.32830002 156.57410069 54.36874419 167.77994061 C54.39894475 176.44592039 54.41371607 185.11184357 54.41702431 193.77787495 C54.41937105 198.95101516 54.42828197 204.12394396 54.45348549 209.29702759 C54.47683896 214.16932961 54.48097023 219.04128214 54.47072411 223.91362572 C54.47023034 225.69573316 54.47650354 227.47785823 54.49028015 229.25991249 C54.63054187 248.4894563 49.03612127 258.88039861 35.77270508 272.40332031 C30.92768544 277.27863341 26.02891053 282.06827551 20.74609375 286.47265625 C16.76825207 289.95215535 13.17734054 293.84723161 9.54779053 297.68305969 C7.24266673 300.1094796 4.91265102 302.51140667 2.58154297 304.9128418 C1.35946595 306.18036796 0.14556271 307.45582542 -1.06005859 308.73901367 C-2.81574204 310.60427812 -4.5993183 312.43853178 -6.390625 314.26953125 C-6.9190802 314.84443802 -7.4475354 315.41934479 -7.99200439 316.01167297 C-11.22398433 319.24784778 -13.26779035 320.34561325 -17.91308594 320.3581543 C-19.27758323 320.26719313 -20.64158674 320.15760774 -22 320 C-22.22558594 319.29101562 -22.45117188 318.58203125 -22.68359375 317.8515625 C-24.26350927 314.42919358 -26.47364589 312.04555626 -29.0625 309.375 C-43.21484475 294.35546574 -43.21484475 294.35546574 -45 289 C-45.66 289 -46.32 289 -47 289 C-48.35382149 287.51261765 -49.63139886 285.95569449 -50.875 284.375 C-54.4476785 279.91058094 -58.08029518 275.51938255 -61.8125 271.1875 C-62.3175708 270.60025146 -62.8226416 270.01300293 -63.34301758 269.40795898 C-64.37736462 268.20587117 -65.41211611 267.00413124 -66.44726562 265.80273438 C-68.98962354 262.85104085 -71.52643289 259.8945987 -74.0625 256.9375 C-74.55766113 256.36056396 -75.05282227 255.78362793 -75.56298828 255.18920898 C-78.49033042 251.7746153 -81.39889925 248.34502792 -84.29516602 244.90405273 C-88.70452093 239.66586589 -93.20578933 234.53138819 -97.81640625 229.46875 C-100.14851576 226.83208951 -102.35768937 224.11876434 -104.5625 221.375 C-112.4850665 211.60398514 -112.4850665 211.60398514 -123 205 C-123.33 204.34 -123.66 203.68 -124 203 C-126.53956763 202.59790179 -128.94245623 202.33733705 -131.5 202.1875 C-132.22888428 202.14471924 -132.95776855 202.10193848 -133.70874023 202.05786133 C-139.36438708 201.82811051 -143.88976304 202.43432318 -149 205 C-149.64453125 205.30292969 -150.2890625 205.60585938 -150.953125 205.91796875 C-154.97661339 207.98888189 -157.41058863 210.33910807 -160 214 C-160.66 214.721875 -161.32 215.44375 -162 216.1875 C-168.91679518 225.91424322 -169.1693758 236.69088898 -169.0625 248.203125 C-169.05871338 249.16160339 -169.05492676 250.12008179 -169.05102539 251.10760498 C-169.0349277 255.15740566 -169.00711299 259.20709984 -168.97949219 263.25683594 C-168.91174329 274.15727662 -168.94384806 285.03038641 -169.4375 295.921875 C-169.47673584 296.82335266 -169.51597168 297.72483032 -169.55639648 298.65362549 C-169.87417114 304.87417114 -169.87417114 304.87417114 -171 306 C-175.72921524 306.42992866 -178.18616636 305.79060998 -182 303 C-183.59493592 301.6376589 -185.18790901 300.27287175 -186.765625 298.890625 C-189.69912857 296.40842967 -192.71380565 294.0423139 -195.75 291.6875 C-196.3171875 291.24269287 -196.884375 290.79788574 -197.46875 290.33959961 C-199.97468742 288.40682079 -201.97325122 287.00891626 -205 286 C-206.67557119 284.34228569 -208.34029218 282.67359658 -210 281 C-211.88009285 279.44422187 -213.79984107 277.94710364 -215.72363281 276.44580078 C-225.00169569 269.19121445 -232.67202946 261.65594109 -238 251 C-238 250.34 -238 249.68 -238 249 C-239.32 249.33 -240.64 249.66 -242 250 C-242 248.35 -242 246.7 -242 245 C-241.34 245.33 -240.68 245.66 -240 246 C-240.29777344 245.47664062 -240.59554687 244.95328125 -240.90234375 244.4140625 C-250.53148197 223.23681189 -247.50969892 190.64803393 -240.06201172 169.31298828 C-238.12355726 164.16725617 -236.01514983 159.10126584 -233.83886719 154.05224609 C-232.88618161 151.80556141 -232.88618161 151.80556141 -231.9453125 148.61328125 C-230.9404107 145.8352676 -230.12843828 144.95896076 -228 143 C-226.40951401 140.82755998 -224.85197677 138.64530191 -223.3125 136.4375 C-217.40114215 128.08843544 -211.65417168 120.02420629 -203.73046875 113.44921875 C-201.89598722 111.97137204 -201.89598722 111.97137204 -200.0625 109.9375 C-194.4636218 104.67794775 -187.67833902 101.19397494 -180.875 97.75 C-180.20629883 97.4087207 -179.53759766 97.06744141 -178.84863281 96.71582031 C-169.46575443 92.06831279 -159.40997562 89.98631185 -149.08203125 92.79296875 C-146.64917083 93.75359896 -144.33243667 94.81863597 -142 96 C-140.948125 96.45375 -139.89625 96.9075 -138.8125 97.375 C-136.48314613 98.7208489 -134.85645112 99.9352096 -132.8828125 101.703125 C-128.81209899 105.23415455 -124.48949563 108.30933556 -120.0625 111.375 C-119.20857666 111.97078857 -118.35465332 112.56657715 -117.47485352 113.18041992 C-112.6018545 116.56292665 -107.69106489 119.88186766 -102.7421875 123.15234375 C-101.69281006 123.84602051 -100.64343262 124.53969727 -99.56225586 125.25439453 C-97.54102054 126.58567148 -95.51602498 127.91126436 -93.48657227 129.22998047 C-74.37922979 141.78804811 -74.37922979 141.78804811 -72 149 C-71.31740847 150.38851397 -70.63382356 151.77654007 -69.94921875 153.1640625 C-67.70544859 158.19252099 -67.17052767 162.92292071 -66.8125 168.375 C-66.73845947 169.29385986 -66.66441895 170.21271973 -66.58813477 171.15942383 C-66.37886713 173.77214766 -66.18820084 176.38569061 -66 179 C-65.81827347 181.22964476 -65.63231272 183.45896051 -65.4375 185.6875 C-65.37433594 186.49574219 -65.31117188 187.30398438 -65.24609375 188.13671875 C-65.09128901 190.08929571 -65.09128901 190.08929571 -64 192 C-62.35 192 -60.7 192 -59 192 C-53.40273459 182.58745572 -55.54517252 165.54691757 -57.5625 155.08203125 C-60.72263396 143.50085849 -67.17375003 134.54180153 -77 127.8125 C-77.60328125 127.38775391 -78.2065625 126.96300781 -78.828125 126.52539062 C-81.46542966 124.682144 -84.09288223 122.94586077 -86.875 121.32421875 C-89 120 -89 120 -90 118 C-90.70640625 117.72542969 -91.4128125 117.45085937 -92.140625 117.16796875 C-95.71998367 115.70590831 -98.65372259 113.58400483 -101.75 111.3125 C-102.67425781 110.63767578 -102.67425781 110.63767578 -103.6171875 109.94921875 C-104.84874252 109.04745252 -106.07860267 108.14336639 -107.30664062 107.23681641 C-108.75470405 106.17916224 -110.22670979 105.15442114 -111.703125 104.13671875 C-118.22736795 99.48764087 -123.56490251 93.10677414 -125 85 C-126.34030645 71.21399079 -121.94731571 61.68558771 -113.5078125 51.00390625 C-90.5845707 23.54600447 -60.3490218 4.17029832 -24.2578125 0.26953125 C-16.19247224 -0.34147938 -8.08008334 -0.14901793 0 0 Z " fill="#010202" transform="translate(442,136)"/>
<path d="M0 0 C0.66 0.33 1.32 0.66 2 1 C-7.57 10.57 -17.14 20.14 -27 30 C-27.33 29.34 -27.66 28.68 -28 28 C-23.95002695 23.17118598 -19.90707384 18.94699417 -15 15 C-13.32080777 13.34595374 -11.65565785 11.67760324 -10 10 C-5 5 -5 5 0 0 Z " fill="#444443" transform="translate(654,464)"/>
<path d="M0 0 C3 3 3 3 3.0390625 5.9609375 C2.90242188 7.08757812 2.76578125 8.21421875 2.625 9.375 C2.12902676 13.60536003 2.09659856 16.85657987 3 21 C2.94921875 23.421875 2.94921875 23.421875 2.6875 25.75 C2.60886719 26.52859375 2.53023438 27.3071875 2.44921875 28.109375 C2.30097656 28.73328125 2.15273438 29.3571875 2 30 C1.34 30.33 0.68 30.66 0 31 C0 20.77 0 10.54 0 0 Z " fill="#464745" transform="translate(493,470)"/>
<path d="M0 0 C0.72631836 1.74316406 0.72631836 1.74316406 1 4 C-0.44702148 6.01464844 -0.44702148 6.01464844 -2.62109375 8.109375 C-3.39130859 8.86347656 -4.16152344 9.61757813 -4.95507812 10.39453125 C-5.77427734 11.17183594 -6.59347656 11.94914063 -7.4375 12.75 C-8.66049805 13.93916016 -8.66049805 13.93916016 -9.90820312 15.15234375 C-11.92810392 17.11318312 -13.95872128 19.0614649 -16 21 C-16 16.92412524 -14.74008328 16.01409161 -12 13 C-10.00075834 11.17373096 -7.96715173 9.40015559 -5.90234375 7.6484375 C-2.11455167 4.42455248 -2.11455167 4.42455248 0 0 Z " fill="#191916" transform="translate(560,690)"/>
<path d="M0 0 C1.51953125 1.11328125 1.51953125 1.11328125 3 3 C3.07421875 5.91796875 3.07421875 5.91796875 2.6875 9.1875 C2.56761719 10.27417969 2.44773437 11.36085938 2.32421875 12.48046875 C2.21722656 13.31191406 2.11023438 14.14335937 2 15 C0 13 0 13 -0.1953125 9.9609375 C-0.17210937 8.77757812 -0.14890625 7.59421875 -0.125 6.375 C-0.10695313 5.18648438 -0.08890625 3.99796875 -0.0703125 2.7734375 C-0.04710937 1.85820312 -0.02390625 0.94296875 0 0 Z " fill="#6C6C6B" transform="translate(493,470)"/>
<path d="M0 0 C2.6015625 0.0234375 2.6015625 0.0234375 5.625 0.375 C6.62789062 0.48585938 7.63078125 0.59671875 8.6640625 0.7109375 C9.82035156 0.85402344 9.82035156 0.85402344 11 1 C11 1.33 11 1.66 11 2 C6.71 2 2.42 2 -2 2 C-1.34 1.34 -0.68 0.68 0 0 Z " fill="#A09F9E" transform="translate(713,656)"/>
<path d="M0 0 C3.875 1.75 3.875 1.75 5 4 C3.68 4.33 2.36 4.66 1 5 C0.67 3.35 0.34 1.7 0 0 Z " fill="#A7A6A3" transform="translate(728,619)"/>
<path d="M0 0 C1.65 0.33 3.3 0.66 5 1 C5 1.33 5 1.66 5 2 C3.02 2 1.04 2 -1 2 C-0.67 1.34 -0.34 0.68 0 0 Z " fill="#9E9D9C" transform="translate(728,656)"/>
<path d="M0 0 C1.32 1.32 2.64 2.64 4 4 C1.525 3.01 1.525 3.01 -1 2 C-0.67 1.34 -0.34 0.68 0 0 Z " fill="#9D9B99" transform="translate(329,556)"/>
<path d="M0 0 C1.98 0.99 1.98 0.99 4 2 C2.68 2.33 1.36 2.66 0 3 C0 2.01 0 1.02 0 0 Z " fill="#9F9D9D" transform="translate(696,416)"/>
<path d="M0 0 C1.485 0.99 1.485 0.99 3 2 C2.01 2.66 1.02 3.32 0 4 C0 2.68 0 1.36 0 0 Z " fill="#9F9E9C" transform="translate(688,426)"/>
<path d="M0 0 C0.99 0.99 1.98 1.98 3 3 C1.68 2.34 0.36 1.68 -1 1 C-0.67 0.67 -0.34 0.34 0 0 Z " fill="#A5A1A1" transform="translate(697,588)"/>
<path d="M0 0 C1.98 0.99 1.98 0.99 4 2 C3.01 2 2.02 2 1 2 C0.67 1.34 0.34 0.68 0 0 Z " fill="#9C9C9B" transform="translate(338,565)"/>
<path d="M0 0 C0.99 0.33 1.98 0.66 3 1 C2.01 1.66 1.02 2.32 0 3 C0 2.01 0 1.02 0 0 Z " fill="#B3B2AE" transform="translate(597,560)"/>
<path d="M0 0 C0.66 0 1.32 0 2 0 C2 0.66 2 1.32 2 2 C1.01 1.67 0.02 1.34 -1 1 C-0.67 0.67 -0.34 0.34 0 0 Z " fill="#9C9C9A" transform="translate(736,656)"/>
<path d="M0 0 C0.99 0.33 1.98 0.66 3 1 C2.01 1.33 1.02 1.66 0 2 C0 1.34 0 0.68 0 0 Z " fill="#8C8988" transform="translate(384,604)"/>
<path d="M0 0 C0.66 0 1.32 0 2 0 C2.33 0.99 2.66 1.98 3 3 C2.34 3 1.68 3 1 3 C0.67 2.01 0.34 1.02 0 0 Z " fill="#A4A3A1" transform="translate(672,565)"/>
<path d="M0 0 C0.66 0 1.32 0 2 0 C1.67 0.99 1.34 1.98 1 3 C0.67 2.01 0.34 1.02 0 0 Z " fill="#959394" transform="translate(472,480)"/>
<path d="M0 0 C0.66 0 1.32 0 2 0 C1.67 0.99 1.34 1.98 1 3 C0.67 2.01 0.34 1.02 0 0 Z " fill="#2F291E" transform="translate(144,472)"/>
<path d="M0 0 C0.66 0 1.32 0 2 0 C1.67 0.99 1.34 1.98 1 3 C0.67 2.01 0.34 1.02 0 0 Z " fill="#33322F" transform="translate(792,440)"/>
<path d="M0 0 C0.99 0.495 0.99 0.495 2 1 C1.01 2.485 1.01 2.485 0 4 C0 2.68 0 1.36 0 0 Z " fill="#29251E" transform="translate(200,304)"/>
<path d="M0 0 C4 1 4 1 4 1 Z " fill="#1F1C15" transform="translate(588,879)"/>
<path d="M0 0 C0.99 0.33 1.98 0.66 3 1 C2.01 1.33 1.02 1.66 0 2 C0 1.34 0 0.68 0 0 Z " fill="#231F18" transform="translate(400,869)"/>
<path d="M0 0 C0.99 0.33 1.98 0.66 3 1 C2.01 1 1.02 1 0 1 C0 0.67 0 0.34 0 0 Z " fill="#28241D" transform="translate(266,749)"/>
<path d="M0 0 C0.99 0.33 1.98 0.66 3 1 C2.01 1 1.02 1 0 1 C0 0.67 0 0.34 0 0 Z " fill="#31312F" transform="translate(560,688)"/>
<path d="M0 0 C0.66 0.66 1.32 1.32 2 2 C1.01 1.67 0.02 1.34 -1 1 C-0.67 0.67 -0.34 0.34 0 0 Z " fill="#91908F" transform="translate(745,656)"/>
<path d="M0 0 C4 1 4 1 4 1 Z " fill="#A09F9E" transform="translate(705,657)"/>
<path d="M0 0 C0.99 0.33 1.98 0.66 3 1 C2.01 1 1.02 1 0 1 C0 0.67 0 0.34 0 0 Z " fill="#8A8987" transform="translate(387,606)"/>
<path d="M0 0 C0.66 0 1.32 0 2 0 C1.67 0.99 1.34 1.98 1 3 C0.67 2.01 0.34 1.02 0 0 Z " fill="#AFAFAB" transform="translate(640,473)"/>
<path d="M0 0 C0.66 0 1.32 0 2 0 C1.67 0.99 1.34 1.98 1 3 C0.67 2.01 0.34 1.02 0 0 Z " fill="#A6A6A4" transform="translate(269,464)"/>
<path d="M0 0 C0.99 0.495 0.99 0.495 2 1 C1.67 1.66 1.34 2.32 1 3 C0.67 2.01 0.34 1.02 0 0 Z " fill="#ABA9A6" transform="translate(402,434)"/>
<path d="M0 0 C0.33 0.99 0.66 1.98 1 3 C0.34 2.67 -0.32 2.34 -1 2 C-0.67 1.34 -0.34 0.68 0 0 Z " fill="#A2A29E" transform="translate(683,432)"/>
<path d="M0 0 C0.99 0.495 0.99 0.495 2 1 C1.34 1.66 0.68 2.32 0 3 C0 2.01 0 1.02 0 0 Z " fill="#AEADAA" transform="translate(352,381)"/>
<path d="M0 0 C0.99 0 1.98 0 3 0 C2.67 0.66 2.34 1.32 2 2 C1.34 1.34 0.68 0.68 0 0 Z " fill="#787571" transform="translate(769,339)"/>
<path d="M0 0 C0.66 0.66 1.32 1.32 2 2 C1.34 2 0.68 2 0 2 C0 1.34 0 0.68 0 0 Z " fill="#221F17" transform="translate(579,877)"/>
<path d="" fill="#232119" transform="translate(0,0)"/>
<path d="M0 0 C0.66 0 1.32 0 2 0 C1.67 0.66 1.34 1.32 1 2 C0.67 1.34 0.34 0.68 0 0 Z " fill="#2C2C29" transform="translate(544,704)"/>
<path d="M0 0 C0.99 0.495 0.99 0.495 2 1 C1.01 1.495 1.01 1.495 0 2 C0 1.34 0 0.68 0 0 Z " fill="#251F16" transform="translate(211,701)"/>
<path d="M0 0 C0.66 0.66 1.32 1.32 2 2 C1.34 2 0.68 2 0 2 C0 1.34 0 0.68 0 0 Z " fill="#898988" transform="translate(751,656)"/>
<path d="M0 0 C0.66 0.66 1.32 1.32 2 2 C1.34 2 0.68 2 0 2 C0 1.34 0 0.68 0 0 Z " fill="#A4A0A0" transform="translate(736,626)"/>
<path d="M0 0 C0.66 0 1.32 0 2 0 C1.67 0.66 1.34 1.32 1 2 C0.67 1.34 0.34 0.68 0 0 Z " fill="#ADACAA" transform="translate(720,611)"/>
<path d="M0 0 C0.66 0.66 1.32 1.32 2 2 C1.34 2 0.68 2 0 2 C0 1.34 0 0.68 0 0 Z " fill="#A8A5A3" transform="translate(706,597)"/>
<path d="M0 0 C0.66 0 1.32 0 2 0 C1.67 0.66 1.34 1.32 1 2 C0.67 1.34 0.34 0.68 0 0 Z " fill="#8B8988" transform="translate(376,597)"/>
<path d="M0 0 C0.33 0.66 0.66 1.32 1 2 C0.34 1.67 -0.32 1.34 -1 1 C-0.67 0.67 -0.34 0.34 0 0 Z " fill="#939192" transform="translate(319,592)"/>
<path d="M0 0 C0.99 0.495 0.99 0.495 2 1 C1.01 1.495 1.01 1.495 0 2 C0 1.34 0 0.68 0 0 Z " fill="#959596" transform="translate(465,488)"/>
<path d="M0 0 C0.99 0.495 0.99 0.495 2 1 C1.01 1.495 1.01 1.495 0 2 C0 1.34 0 0.68 0 0 Z " fill="#B3B2B2" transform="translate(632,482)"/>
<path d="M0 0 C0.33 0.66 0.66 1.32 1 2 C0.34 1.67 -0.32 1.34 -1 1 C-0.67 0.67 -0.34 0.34 0 0 Z " fill="#AAA7A6" transform="translate(367,480)"/>
<path d="M0 0 C0.33 0.66 0.66 1.32 1 2 C0.34 1.67 -0.32 1.34 -1 1 C-0.67 0.67 -0.34 0.34 0 0 Z " fill="#B3B2AF" transform="translate(558,477)"/>
<path d="M0 0 C0.66 0 1.32 0 2 0 C1.67 0.66 1.34 1.32 1 2 C0.67 1.34 0.34 0.68 0 0 Z " fill="#959494" transform="translate(480,472)"/>
<path d="M0 0 C0.99 0.495 0.99 0.495 2 1 C1.01 1.495 1.01 1.495 0 2 C0 1.34 0 0.68 0 0 Z " fill="#C4C3C0" transform="translate(324,449)"/>
<path d="M0 0 C0.33 0.66 0.66 1.32 1 2 C0.34 1.67 -0.32 1.34 -1 1 C-0.67 0.67 -0.34 0.34 0 0 Z " fill="#6A6967" transform="translate(239,440)"/>
<path d="M0 0 C0.66 0.66 1.32 1.32 2 2 C1.34 2 0.68 2 0 2 C0 1.34 0 0.68 0 0 Z " fill="#ADABAA" transform="translate(401,436)"/>
<path d="M0 0 C0.33 0.66 0.66 1.32 1 2 C0.34 1.67 -0.32 1.34 -1 1 C-0.67 0.67 -0.34 0.34 0 0 Z " fill="#A2A09D" transform="translate(681,435)"/>
<path d="M0 0 C0.99 0.495 0.99 0.495 2 1 C1.01 1.495 1.01 1.495 0 2 C0 1.34 0 0.68 0 0 Z " fill="#9E9D9C" transform="translate(696,420)"/>
<path d="M0 0 C0.99 0.495 0.99 0.495 2 1 C1.01 1.495 1.01 1.495 0 2 C0 1.34 0 0.68 0 0 Z " fill="#A9A7A5" transform="translate(368,396)"/>
<path d="M0 0 C0.66 0.66 1.32 1.32 2 2 C1.34 2 0.68 2 0 2 C0 1.34 0 0.68 0 0 Z " fill="#9C9B97" transform="translate(337,358)"/>
<path d="M0 0 C0.33 0.66 0.66 1.32 1 2 C0.34 1.67 -0.32 1.34 -1 1 C-0.67 0.67 -0.34 0.34 0 0 Z " fill="#2E2C2A" transform="translate(369,268)"/>
<path d="M0 0 C0.66 0 1.32 0 2 0 C1.67 0.66 1.34 1.32 1 2 C0.67 1.34 0.34 0.68 0 0 Z " fill="#272318" transform="translate(240,240)"/>
<path d="M0 0 C2 1 2 1 2 1 Z " fill="#201B16" transform="translate(436,879)"/>
<path d="M0 0 C2 1 2 1 2 1 Z " fill="#201C15" transform="translate(428,879)"/>
<path d="M0 0 C2 1 2 1 2 1 Z " fill="#221F19" transform="translate(560,869)"/>
<path d="" fill="#232019" transform="translate(0,0)"/>
<path d="" fill="#26211A" transform="translate(0,0)"/>
<path d="" fill="#2C2926" transform="translate(0,0)"/>
<path d="" fill="#272724" transform="translate(0,0)"/>
<path d="" fill="#26211A" transform="translate(0,0)"/>
<path d="" fill="#242118" transform="translate(0,0)"/>
<path d="M0 0 C2 1 2 1 2 1 Z " fill="#2F2E2C" transform="translate(552,696)"/>
<path d="" fill="#25201A" transform="translate(0,0)"/>
<path d="" fill="#272319" transform="translate(0,0)"/>
<path d="" fill="#2A231A" transform="translate(0,0)"/>
<path d="" fill="#252219" transform="translate(0,0)"/>
<path d="M0 0 C2 1 2 1 2 1 Z " fill="#999995" transform="translate(739,657)"/>
<path d="M0 0 C2 1 2 1 2 1 Z " fill="#9B9B98" transform="translate(699,657)"/>
<path d="M0 0 C2 1 2 1 2 1 Z " fill="#9D9A99" transform="translate(696,657)"/>
<path d="" fill="#28231C" transform="translate(0,0)"/>
<path d="" fill="#797774" transform="translate(0,0)"/>
<path d="" fill="#28231D" transform="translate(0,0)"/>
<path d="M0 0 C2 1 2 1 2 1 Z " fill="#9B9998" transform="translate(745,636)"/>
<path d="" fill="#8E8C8D" transform="translate(0,0)"/>
<path d="" fill="#28241B" transform="translate(0,0)"/>
<path d="" fill="#919091" transform="translate(0,0)"/>
<path d="M0 0 C2 1 2 1 2 1 Z " fill="#858380" transform="translate(400,621)"/>
<path d="" fill="#252119" transform="translate(0,0)"/>
<path d="M0 0 C2 1 2 1 2 1 Z " fill="#AEABA8" transform="translate(723,614)"/>
<path d="M0 0 C2 1 2 1 2 1 Z " fill="#8A8988" transform="translate(395,614)"/>
<path d="M0 0 C2 1 2 1 2 1 Z " fill="#858582" transform="translate(393,612)"/>
<path d="" fill="#232219" transform="translate(0,0)"/>
<path d="M0 0 C2 1 2 1 2 1 Z " fill="#AEAFAC" transform="translate(645,609)"/>
<path d="M0 0 C2 1 2 1 2 1 Z " fill="#ABA8A5" transform="translate(715,606)"/>
<path d="" fill="#27231D" transform="translate(0,0)"/>
<path d="" fill="#282621" transform="translate(0,0)"/>
<path d="M0 0 C2 1 2 1 2 1 Z " fill="#999895" transform="translate(352,579)"/>
<path d="M0 0 C2 1 2 1 2 1 Z " fill="#9A9997" transform="translate(352,577)"/>
<path d="M0 0 C2 1 2 1 2 1 Z " fill="#999B98" transform="translate(348,574)"/>
<path d="" fill="#2B2A26" transform="translate(0,0)"/>
<path d="" fill="#9C9A98" transform="translate(0,0)"/>
<path d="M0 0 C2 1 2 1 2 1 Z " fill="#AFAEAB" transform="translate(605,569)"/>
<path d="" fill="#2A2925" transform="translate(0,0)"/>
<path d="" fill="#2F291D" transform="translate(0,0)"/>
<path d="" fill="#2F291C" transform="translate(0,0)"/>
<path d="M0 0 C2 1 2 1 2 1 Z " fill="#2C2924" transform="translate(798,547)"/>
<path d="M0 0 C2 1 2 1 2 1 Z " fill="#ADACAA" transform="translate(646,543)"/>
<path d="" fill="#8E8D8B" transform="translate(0,0)"/>
<path d="M0 0 C2 1 2 1 2 1 Z " fill="#ABAAA5" transform="translate(645,540)"/>
<path d="M0 0 C2 1 2 1 2 1 Z " fill="#848583" transform="translate(424,531)"/>
<path d="" fill="#8A8888" transform="translate(0,0)"/>
<path d="" fill="#9B9B9B" transform="translate(0,0)"/>
<path d="M0 0 C2 1 2 1 2 1 Z " fill="#35322F" transform="translate(732,490)"/>
<path d="" fill="#383533" transform="translate(0,0)"/>
<path d="M0 0 C2 1 2 1 2 1 Z " fill="#373230" transform="translate(736,488)"/>
<path d="" fill="#3B3C36" transform="translate(0,0)"/>
<path d="" fill="#3C3A38" transform="translate(0,0)"/>
<path d="M0 0 C2 1 2 1 2 1 Z " fill="#AAA8A7" transform="translate(643,472)"/>
<path d="" fill="#B6B2B2" transform="translate(0,0)"/>
<path d="M0 0 C2 1 2 1 2 1 Z " fill="#3B3938" transform="translate(769,464)"/>
<path d="" fill="#393735" transform="translate(0,0)"/>
<path d="M0 0 C2 1 2 1 2 1 Z " fill="#B1B2AE" transform="translate(430,455)"/>
<path d="M0 0 C2 1 2 1 2 1 Z " fill="#B4B1B0" transform="translate(416,455)"/>
<path d="M0 0 C2 1 2 1 2 1 Z " fill="#BEBFBB" transform="translate(326,450)"/>
<path d="" fill="#A4A39F" transform="translate(0,0)"/>
<path d="M0 0 C2 1 2 1 2 1 Z " fill="#A6A5A2" transform="translate(270,443)"/>
<path d="" fill="#2F2E2A" transform="translate(0,0)"/>
<path d="M0 0 C2 1 2 1 2 1 Z " fill="#6E6D6C" transform="translate(244,430)"/>
<path d="" fill="#A8A7A3" transform="translate(0,0)"/>
<path d="M0 0 C2 1 2 1 2 1 Z " fill="#A7A6A4" transform="translate(394,426)"/>
<path d="M0 0 C2 1 2 1 2 1 Z " fill="#9E9E9D" transform="translate(689,425)"/>
<path d="M0 0 C2 1 2 1 2 1 Z " fill="#595957" transform="translate(235,422)"/>
<path d="M0 0 C2 1 2 1 2 1 Z " fill="#585754" transform="translate(234,420)"/>
<path d="" fill="#2A261D" transform="translate(0,0)"/>
<path d="" fill="#9D9D9C" transform="translate(0,0)"/>
<path d="" fill="#2A281D" transform="translate(0,0)"/>
<path d="M0 0 C2 1 2 1 2 1 Z " fill="#242019" transform="translate(838,408)"/>
<path d="M0 0 C2 1 2 1 2 1 Z " fill="#28251F" transform="translate(203,390)"/>
<path d="" fill="#A5A4A2" transform="translate(0,0)"/>
<path d="" fill="#26241F" transform="translate(0,0)"/>
<path d="M0 0 C2 1 2 1 2 1 Z " fill="#A7A7A2" transform="translate(355,380)"/>
<path d="" fill="#A6A4A1" transform="translate(0,0)"/>
<path d="M0 0 C2 1 2 1 2 1 Z " fill="#A9A8A6" transform="translate(348,374)"/>
<path d="" fill="#A19F9B" transform="translate(0,0)"/>
<path d="" fill="#979695" transform="translate(0,0)"/>
<path d="" fill="#858382" transform="translate(0,0)"/>
<path d="M0 0 C2 1 2 1 2 1 Z " fill="#999796" transform="translate(312,339)"/>
<path d="M0 0 C2 1 2 1 2 1 Z " fill="#959391" transform="translate(724,338)"/>
<path d="" fill="#26231A" transform="translate(0,0)"/>
<path d="M0 0 C2 1 2 1 2 1 Z " fill="#2F2E29" transform="translate(641,323)"/>
<path d="" fill="#2B2925" transform="translate(0,0)"/>
<path d="" fill="#2E2C27" transform="translate(0,0)"/>
<path d="" fill="#312F2D" transform="translate(0,0)"/>
<path d="M0 0 C2 1 2 1 2 1 Z " fill="#2A2419" transform="translate(224,259)"/>
<path d="" fill="#2C2519" transform="translate(0,0)"/>
<path d="M0 0 C2 1 2 1 2 1 Z " fill="#2B2720" transform="translate(247,240)"/>
<path d="M0 0 C2 1 2 1 2 1 Z " fill="#24221C" transform="translate(302,232)"/>
<path d="M0 0 C2 1 2 1 2 1 Z " fill="#27241B" transform="translate(744,226)"/>
<path d="M0 0 C2 1 2 1 2 1 Z " fill="#26221B" transform="translate(736,226)"/>
<path d="M0 0 C2 1 2 1 2 1 Z " fill="#211E17" transform="translate(638,144)"/>
<path d="M0 0 C2 1 2 1 2 1 Z " fill="#211F18" transform="translate(462,144)"/>
<path d="M0 0 C2 1 2 1 2 1 Z " fill="#231F16" transform="translate(449,138)"/>
<path d="M0 0 C2 1 2 1 2 1 Z " fill="#211D15" transform="translate(610,136)"/>
<path d="M0 0 C2 1 2 1 2 1 Z " fill="#251F19" transform="translate(408,136)"/>
<path d="" fill="#58440E" transform="translate(0,0)"/>
<path d="" fill="#201F18" transform="translate(0,0)"/>
<path d="" fill="#22211A" transform="translate(0,0)"/>
<path d="" fill="#252018" transform="translate(0,0)"/>
<path d="" fill="#24201A" transform="translate(0,0)"/>
<path d="" fill="#222014" transform="translate(0,0)"/>
<path d="" fill="#252019" transform="translate(0,0)"/>
<path d="" fill="#201E1A" transform="translate(0,0)"/>
<path d="" fill="#2A231D" transform="translate(0,0)"/>
<path d="" fill="#231F19" transform="translate(0,0)"/>
<path d="" fill="#241F16" transform="translate(0,0)"/>
<path d="" fill="#242016" transform="translate(0,0)"/>
<path d="" fill="#211C15" transform="translate(0,0)"/>
<path d="" fill="#262015" transform="translate(0,0)"/>
<path d="" fill="#241F16" transform="translate(0,0)"/>
<path d="" fill="#1D1C17" transform="translate(0,0)"/>
<path d="" fill="#241F18" transform="translate(0,0)"/>
<path d="" fill="#221E17" transform="translate(0,0)"/>
<path d="" fill="#221E17" transform="translate(0,0)"/>
<path d="" fill="#26211B" transform="translate(0,0)"/>
<path d="" fill="#27231A" transform="translate(0,0)"/>
<path d="" fill="#27221E" transform="translate(0,0)"/>
<path d="" fill="#25221A" transform="translate(0,0)"/>
<path d="" fill="#262017" transform="translate(0,0)"/>
<path d="" fill="#25231B" transform="translate(0,0)"/>
<path d="" fill="#27251D" transform="translate(0,0)"/>
<path d="" fill="#24221D" transform="translate(0,0)"/>
<path d="" fill="#23211E" transform="translate(0,0)"/>
<path d="" fill="#252119" transform="translate(0,0)"/>
<path d="" fill="#2C281D" transform="translate(0,0)"/>
<path d="" fill="#272620" transform="translate(0,0)"/>
<path d="" fill="#29261F" transform="translate(0,0)"/>
<path d="" fill="#2A251D" transform="translate(0,0)"/>
<path d="" fill="#26231C" transform="translate(0,0)"/>
<path d="" fill="#28241B" transform="translate(0,0)"/>
<path d="" fill="#292620" transform="translate(0,0)"/>
<path d="" fill="#29251F" transform="translate(0,0)"/>
<path d="" fill="#282422" transform="translate(0,0)"/>
<path d="" fill="#26231E" transform="translate(0,0)"/>
<path d="" fill="#282723" transform="translate(0,0)"/>
<path d="" fill="#282724" transform="translate(0,0)"/>
<path d="" fill="#272421" transform="translate(0,0)"/>
<path d="" fill="#282521" transform="translate(0,0)"/>
<path d="" fill="#28241C" transform="translate(0,0)"/>
<path d="" fill="#2A2925" transform="translate(0,0)"/>
<path d="" fill="#272520" transform="translate(0,0)"/>
<path d="" fill="#2A261D" transform="translate(0,0)"/>
<path d="" fill="#29261C" transform="translate(0,0)"/>
<path d="" fill="#292821" transform="translate(0,0)"/>
<path d="" fill="#2A2724" transform="translate(0,0)"/>
<path d="" fill="#292723" transform="translate(0,0)"/>
<path d="" fill="#282721" transform="translate(0,0)"/>
<path d="" fill="#272520" transform="translate(0,0)"/>
<path d="" fill="#30322D" transform="translate(0,0)"/>
<path d="" fill="#2D2A25" transform="translate(0,0)"/>
<path d="" fill="#29241E" transform="translate(0,0)"/>
<path d="" fill="#27221C" transform="translate(0,0)"/>
<path d="" fill="#29241C" transform="translate(0,0)"/>
<path d="" fill="#2A241C" transform="translate(0,0)"/>
<path d="" fill="#2B2B24" transform="translate(0,0)"/>
<path d="" fill="#292723" transform="translate(0,0)"/>
<path d="" fill="#2E2B27" transform="translate(0,0)"/>
<path d="" fill="#2E2B25" transform="translate(0,0)"/>
<path d="" fill="#2D2B26" transform="translate(0,0)"/>
<path d="" fill="#282525" transform="translate(0,0)"/>
<path d="" fill="#292922" transform="translate(0,0)"/>
<path d="" fill="#2D2A27" transform="translate(0,0)"/>
<path d="" fill="#252117" transform="translate(0,0)"/>
<path d="" fill="#2B251A" transform="translate(0,0)"/>
<path d="" fill="#2B2827" transform="translate(0,0)"/>
<path d="" fill="#2C261A" transform="translate(0,0)"/>
<path d="" fill="#2A2519" transform="translate(0,0)"/>
<path d="" fill="#292726" transform="translate(0,0)"/>
<path d="" fill="#2B2618" transform="translate(0,0)"/>
<path d="" fill="#3C3C3B" transform="translate(0,0)"/>
<path d="" fill="#2F2E29" transform="translate(0,0)"/>
<path d="" fill="#3C3D3C" transform="translate(0,0)"/>
<path d="" fill="#333331" transform="translate(0,0)"/>
<path d="" fill="#28231A" transform="translate(0,0)"/>
<path d="" fill="#2C271C" transform="translate(0,0)"/>
<path d="" fill="#2B2926" transform="translate(0,0)"/>
<path d="" fill="#2B2A22" transform="translate(0,0)"/>
<path d="" fill="#4A4746" transform="translate(0,0)"/>
<path d="" fill="#32312F" transform="translate(0,0)"/>
<path d="" fill="#484646" transform="translate(0,0)"/>
<path d="" fill="#555354" transform="translate(0,0)"/>
<path d="" fill="#575755" transform="translate(0,0)"/>
<path d="" fill="#5A5958" transform="translate(0,0)"/>
<path d="" fill="#32322F" transform="translate(0,0)"/>
<path d="" fill="#363130" transform="translate(0,0)"/>
<path d="" fill="#2C261C" transform="translate(0,0)"/>
<path d="" fill="#32312F" transform="translate(0,0)"/>
<path d="" fill="#33312D" transform="translate(0,0)"/>
<path d="" fill="#292319" transform="translate(0,0)"/>
<path d="" fill="#32312D" transform="translate(0,0)"/>
<path d="" fill="#33312E" transform="translate(0,0)"/>
<path d="" fill="#33312F" transform="translate(0,0)"/>
<path d="" fill="#30322D" transform="translate(0,0)"/>
<path d="" fill="#272219" transform="translate(0,0)"/>
<path d="" fill="#28231D" transform="translate(0,0)"/>
<path d="" fill="#2F302C" transform="translate(0,0)"/>
<path d="" fill="#29231D" transform="translate(0,0)"/>
<path d="" fill="#767573" transform="translate(0,0)"/>
<path d="" fill="#7A7778" transform="translate(0,0)"/>
<path d="" fill="#827F7C" transform="translate(0,0)"/>
<path d="" fill="#84817E" transform="translate(0,0)"/>
<path d="" fill="#858483" transform="translate(0,0)"/>
<path d="" fill="#A29F9D" transform="translate(0,0)"/>
<path d="" fill="#302E2D" transform="translate(0,0)"/>
<path d="" fill="#9FA09E" transform="translate(0,0)"/>
<path d="" fill="#312E2D" transform="translate(0,0)"/>
<path d="" fill="#7B7778" transform="translate(0,0)"/>
<path d="" fill="#757473" transform="translate(0,0)"/>
<path d="" fill="#656460" transform="translate(0,0)"/>
<path d="" fill="#74726F" transform="translate(0,0)"/>
<path d="" fill="#969491" transform="translate(0,0)"/>
<path d="" fill="#312E2A" transform="translate(0,0)"/>
<path d="" fill="#94908E" transform="translate(0,0)"/>
<path d="" fill="#312F2D" transform="translate(0,0)"/>
<path d="" fill="#989795" transform="translate(0,0)"/>
<path d="" fill="#8E8E8A" transform="translate(0,0)"/>
<path d="" fill="#31322E" transform="translate(0,0)"/>
<path d="" fill="#767471" transform="translate(0,0)"/>
<path d="" fill="#787675" transform="translate(0,0)"/>
<path d="" fill="#949390" transform="translate(0,0)"/>
<path d="" fill="#747371" transform="translate(0,0)"/>
<path d="" fill="#8E8D8C" transform="translate(0,0)"/>
<path d="" fill="#9A9797" transform="translate(0,0)"/>
<path d="" fill="#9C9999" transform="translate(0,0)"/>
<path d="" fill="#9D9997" transform="translate(0,0)"/>
<path d="" fill="#9F9E9B" transform="translate(0,0)"/>
<path d="" fill="#9E9C9B" transform="translate(0,0)"/>
<path d="" fill="#A6A5A2" transform="translate(0,0)"/>
<path d="" fill="#A8A5A5" transform="translate(0,0)"/>
<path d="" fill="#A0A19F" transform="translate(0,0)"/>
<path d="" fill="#80807E" transform="translate(0,0)"/>
<path d="" fill="#949490" transform="translate(0,0)"/>
<path d="" fill="#A3A0A0" transform="translate(0,0)"/>
<path d="" fill="#A6A4A3" transform="translate(0,0)"/>
<path d="" fill="#7E7E7C" transform="translate(0,0)"/>
<path d="" fill="#A4A29F" transform="translate(0,0)"/>
<path d="" fill="#7E7C78" transform="translate(0,0)"/>
<path d="" fill="#7D7B77" transform="translate(0,0)"/>
<path d="" fill="#858280" transform="translate(0,0)"/>
<path d="" fill="#A5A29E" transform="translate(0,0)"/>
<path d="" fill="#848480" transform="translate(0,0)"/>
<path d="" fill="#868383" transform="translate(0,0)"/>
<path d="" fill="#ADAEAA" transform="translate(0,0)"/>
<path d="" fill="#ACA9A6" transform="translate(0,0)"/>
<path d="" fill="#AFADAC" transform="translate(0,0)"/>
<path d="" fill="#AAA9A8" transform="translate(0,0)"/>
<path d="" fill="#8E8A89" transform="translate(0,0)"/>
<path d="" fill="#878581" transform="translate(0,0)"/>
<path d="" fill="#868384" transform="translate(0,0)"/>
<path d="" fill="#A9A9A7" transform="translate(0,0)"/>
<path d="" fill="#ADA9A9" transform="translate(0,0)"/>
<path d="" fill="#A8A5A5" transform="translate(0,0)"/>
<path d="" fill="#A9A8A9" transform="translate(0,0)"/>
<path d="" fill="#858283" transform="translate(0,0)"/>
<path d="" fill="#242119" transform="translate(0,0)"/>
<path d="" fill="#979898" transform="translate(0,0)"/>
<path d="" fill="#A6A4A1" transform="translate(0,0)"/>
<path d="" fill="#A9A8A5" transform="translate(0,0)"/>
<path d="" fill="#AAA9A4" transform="translate(0,0)"/>
<path d="" fill="#A9A4A7" transform="translate(0,0)"/>
<path d="" fill="#A9A7A4" transform="translate(0,0)"/>
<path d="" fill="#979793" transform="translate(0,0)"/>
<path d="" fill="#9A9897" transform="translate(0,0)"/>
<path d="" fill="#8C8B89" transform="translate(0,0)"/>
<path d="" fill="#AFABA7" transform="translate(0,0)"/>
<path d="" fill="#A9A6A5" transform="translate(0,0)"/>
<path d="" fill="#ABA8A9" transform="translate(0,0)"/>
<path d="" fill="#ADA9A7" transform="translate(0,0)"/>
<path d="" fill="#A7A3A5" transform="translate(0,0)"/>
<path d="" fill="#A6A9A2" transform="translate(0,0)"/>
<path d="" fill="#949491" transform="translate(0,0)"/>
<path d="" fill="#29251C" transform="translate(0,0)"/>
<path d="" fill="#969495" transform="translate(0,0)"/>
<path d="" fill="#939392" transform="translate(0,0)"/>
<path d="" fill="#2B2924" transform="translate(0,0)"/>
<path d="" fill="#94928F" transform="translate(0,0)"/>
<path d="" fill="#29261C" transform="translate(0,0)"/>
<path d="" fill="#AEAFAB" transform="translate(0,0)"/>
<path d="" fill="#9D9C9B" transform="translate(0,0)"/>
<path d="" fill="#28251F" transform="translate(0,0)"/>
<path d="" fill="#9A9B99" transform="translate(0,0)"/>
<path d="" fill="#9A9A96" transform="translate(0,0)"/>
<path d="" fill="#989795" transform="translate(0,0)"/>
<path d="" fill="#969697" transform="translate(0,0)"/>
<path d="" fill="#AFADAC" transform="translate(0,0)"/>
<path d="" fill="#909091" transform="translate(0,0)"/>
<path d="" fill="#2C2822" transform="translate(0,0)"/>
<path d="" fill="#A19DA1" transform="translate(0,0)"/>
<path d="" fill="#AEABAB" transform="translate(0,0)"/>
<path d="" fill="#9E9F9D" transform="translate(0,0)"/>
<path d="" fill="#2B2B26" transform="translate(0,0)"/>
<path d="" fill="#A4A4A0" transform="translate(0,0)"/>
<path d="" fill="#ADAAA7" transform="translate(0,0)"/>
<path d="" fill="#AAAAA6" transform="translate(0,0)"/>
<path d="" fill="#2F2E2A" transform="translate(0,0)"/>
<path d="" fill="#2B2A22" transform="translate(0,0)"/>
<path d="" fill="#ACABA5" transform="translate(0,0)"/>
<path d="" fill="#ABAAA7" transform="translate(0,0)"/>
<path d="" fill="#90908C" transform="translate(0,0)"/>
<path d="" fill="#B0AFAD" transform="translate(0,0)"/>
<path d="" fill="#2C271C" transform="translate(0,0)"/>
<path d="" fill="#AFAFAC" transform="translate(0,0)"/>
<path d="" fill="#999897" transform="translate(0,0)"/>
<path d="" fill="#B0ACAA" transform="translate(0,0)"/>
<path d="" fill="#979797" transform="translate(0,0)"/>
<path d="" fill="#2C261A" transform="translate(0,0)"/>
<path d="" fill="#2D2A26" transform="translate(0,0)"/>
<path d="" fill="#2E2A1E" transform="translate(0,0)"/>
<path d="" fill="#2B261B" transform="translate(0,0)"/>
<path d="" fill="#2D2A27" transform="translate(0,0)"/>
<path d="" fill="#676765" transform="translate(0,0)"/>
<path d="" fill="#302E2B" transform="translate(0,0)"/>
<path d="" fill="#A09E9E" transform="translate(0,0)"/>
<path d="" fill="#2F2E2A" transform="translate(0,0)"/>
<path d="" fill="#2E2C29" transform="translate(0,0)"/>
<path d="" fill="#A0A09E" transform="translate(0,0)"/>
<path d="" fill="#757572" transform="translate(0,0)"/>
<path d="" fill="#9F9E9C" transform="translate(0,0)"/>
<path d="" fill="#312D2C" transform="translate(0,0)"/>
<path d="" fill="#312F2B" transform="translate(0,0)"/>
<path d="" fill="#898887" transform="translate(0,0)"/>
<path d="" fill="#2E2A29" transform="translate(0,0)"/>
<path d="" fill="#ABABA9" transform="translate(0,0)"/>
<path d="" fill="#9C9B9A" transform="translate(0,0)"/>
<path d="" fill="#2B2726" transform="translate(0,0)"/>
<path d="" fill="#2C2A25" transform="translate(0,0)"/>
<path d="" fill="#A9A6A5" transform="translate(0,0)"/>
<path d="" fill="#31291C" transform="translate(0,0)"/>
<path d="" fill="#A9A7A5" transform="translate(0,0)"/>
<path d="" fill="#B7B5B2" transform="translate(0,0)"/>
<path d="" fill="#8B8989" transform="translate(0,0)"/>
<path d="" fill="#2B2A27" transform="translate(0,0)"/>
<path d="" fill="#B6B6B2" transform="translate(0,0)"/>
<path d="" fill="#8A8B8B" transform="translate(0,0)"/>
<path d="" fill="#2F291C" transform="translate(0,0)"/>
<path d="" fill="#9B9B9A" transform="translate(0,0)"/>
<path d="" fill="#2F2921" transform="translate(0,0)"/>
<path d="" fill="#2F2A1F" transform="translate(0,0)"/>
<path d="" fill="#989795" transform="translate(0,0)"/>
<path d="" fill="#B4B4B1" transform="translate(0,0)"/>
<path d="" fill="#ABAAA6" transform="translate(0,0)"/>
<path d="" fill="#A8A8A6" transform="translate(0,0)"/>
<path d="" fill="#A6A4A2" transform="translate(0,0)"/>
<path d="" fill="#A4A2A1" transform="translate(0,0)"/>
<path d="" fill="#858583" transform="translate(0,0)"/>
<path d="" fill="#9D9C9A" transform="translate(0,0)"/>
<path d="" fill="#A7A7A5" transform="translate(0,0)"/>
<path d="" fill="#A2A1A0" transform="translate(0,0)"/>
<path d="" fill="#858381" transform="translate(0,0)"/>
<path d="" fill="#8E8C8B" transform="translate(0,0)"/>
<path d="" fill="#80807F" transform="translate(0,0)"/>
<path d="" fill="#2A261E" transform="translate(0,0)"/>
<path d="" fill="#B7B9B4" transform="translate(0,0)"/>
<path d="" fill="#888685" transform="translate(0,0)"/>
<path d="" fill="#888787" transform="translate(0,0)"/>
<path d="" fill="#858583" transform="translate(0,0)"/>
<path d="" fill="#BCB9B6" transform="translate(0,0)"/>
<path d="" fill="#B9B8B3" transform="translate(0,0)"/>
<path d="" fill="#8B8A87" transform="translate(0,0)"/>
<path d="" fill="#8A8B88" transform="translate(0,0)"/>
<path d="" fill="#B8B7B5" transform="translate(0,0)"/>
<path d="" fill="#83817F" transform="translate(0,0)"/>
<path d="" fill="#8D8A8A" transform="translate(0,0)"/>
<path d="" fill="#8D8D8C" transform="translate(0,0)"/>
<path d="" fill="#BCBAB7" transform="translate(0,0)"/>
<path d="" fill="#979694" transform="translate(0,0)"/>
<path d="" fill="#979694" transform="translate(0,0)"/>
<path d="" fill="#84837E" transform="translate(0,0)"/>
<path d="" fill="#939292" transform="translate(0,0)"/>
<path d="" fill="#999799" transform="translate(0,0)"/>
<path d="" fill="#8B8C87" transform="translate(0,0)"/>
<path d="" fill="#959497" transform="translate(0,0)"/>
<path d="" fill="#A29F9E" transform="translate(0,0)"/>
<path d="" fill="#969496" transform="translate(0,0)"/>
<path d="" fill="#A09D9D" transform="translate(0,0)"/>
<path d="" fill="#AFAEAD" transform="translate(0,0)"/>
<path d="" fill="#B3B3AE" transform="translate(0,0)"/>
<path d="" fill="#ADADA9" transform="translate(0,0)"/>
<path d="" fill="#2D2717" transform="translate(0,0)"/>
<path d="" fill="#ABABAA" transform="translate(0,0)"/>
<path d="" fill="#B8B8B5" transform="translate(0,0)"/>
<path d="" fill="#A5A29E" transform="translate(0,0)"/>
<path d="" fill="#949391" transform="translate(0,0)"/>
<path d="" fill="#BBBAB9" transform="translate(0,0)"/>
<path d="" fill="#BDBBBB" transform="translate(0,0)"/>
<path d="" fill="#A9A8A6" transform="translate(0,0)"/>
<path d="" fill="#A4A2A4" transform="translate(0,0)"/>
<path d="" fill="#ADADAD" transform="translate(0,0)"/>
<path d="" fill="#929290" transform="translate(0,0)"/>
<path d="" fill="#B0B0AD" transform="translate(0,0)"/>
<path d="" fill="#B1B1B0" transform="translate(0,0)"/>
<path d="" fill="#B2B1AF" transform="translate(0,0)"/>
<path d="" fill="#B5B6B2" transform="translate(0,0)"/>
<path d="" fill="#B4B3B1" transform="translate(0,0)"/>
<path d="" fill="#91918E" transform="translate(0,0)"/>
<path d="" fill="#949392" transform="translate(0,0)"/>
<path d="" fill="#3B3A37" transform="translate(0,0)"/>
<path d="" fill="#3B3937" transform="translate(0,0)"/>
<path d="" fill="#8E8E8A" transform="translate(0,0)"/>
<path d="" fill="#3A3936" transform="translate(0,0)"/>
<path d="" fill="#949393" transform="translate(0,0)"/>
<path d="" fill="#3A3936" transform="translate(0,0)"/>
<path d="" fill="#939290" transform="translate(0,0)"/>
<path d="" fill="#3B3A39" transform="translate(0,0)"/>
<path d="" fill="#AEABAC" transform="translate(0,0)"/>
<path d="" fill="#383734" transform="translate(0,0)"/>
<path d="" fill="#B3B0AE" transform="translate(0,0)"/>
<path d="" fill="#B4B0AD" transform="translate(0,0)"/>
<path d="" fill="#979694" transform="translate(0,0)"/>
<path d="" fill="#969594" transform="translate(0,0)"/>
<path d="" fill="#A7A8A8" transform="translate(0,0)"/>
<path d="" fill="#999695" transform="translate(0,0)"/>
<path d="" fill="#3E3B37" transform="translate(0,0)"/>
<path d="" fill="#989793" transform="translate(0,0)"/>
<path d="" fill="#383736" transform="translate(0,0)"/>
<path d="" fill="#ABA9A7" transform="translate(0,0)"/>
<path d="" fill="#979795" transform="translate(0,0)"/>
<path d="" fill="#B7B3B3" transform="translate(0,0)"/>
<path d="" fill="#AFADAD" transform="translate(0,0)"/>
<path d="" fill="#B3B2AF" transform="translate(0,0)"/>
<path d="" fill="#928E8B" transform="translate(0,0)"/>
<path d="" fill="#3A3635" transform="translate(0,0)"/>
<path d="" fill="#B8BAB5" transform="translate(0,0)"/>
<path d="" fill="#999393" transform="translate(0,0)"/>
<path d="" fill="#908C89" transform="translate(0,0)"/>
<path d="" fill="#302A1B" transform="translate(0,0)"/>
<path d="" fill="#BBBCB7" transform="translate(0,0)"/>
<path d="" fill="#B6B3AE" transform="translate(0,0)"/>
<path d="" fill="#B4B0AD" transform="translate(0,0)"/>
<path d="" fill="#B6B3B1" transform="translate(0,0)"/>
<path d="" fill="#BFBCBA" transform="translate(0,0)"/>
<path d="" fill="#3B3936" transform="translate(0,0)"/>
<path d="" fill="#B5B1AF" transform="translate(0,0)"/>
<path d="" fill="#C0BDBB" transform="translate(0,0)"/>
<path d="" fill="#A7A7A7" transform="translate(0,0)"/>
<path d="" fill="#A9A8A4" transform="translate(0,0)"/>
<path d="" fill="#C3C2C0" transform="translate(0,0)"/>
<path d="" fill="#807C7B" transform="translate(0,0)"/>
<path d="" fill="#383633" transform="translate(0,0)"/>
<path d="" fill="#ACAFAC" transform="translate(0,0)"/>
<path d="" fill="#A4A4A2" transform="translate(0,0)"/>
<path d="" fill="#B3AEAD" transform="translate(0,0)"/>
<path d="" fill="#B1B0AC" transform="translate(0,0)"/>
<path d="" fill="#A5A4A3" transform="translate(0,0)"/>
<path d="" fill="#373732" transform="translate(0,0)"/>
<path d="" fill="#A4A29F" transform="translate(0,0)"/>
<path d="" fill="#999796" transform="translate(0,0)"/>
<path d="" fill="#B1AFAB" transform="translate(0,0)"/>
<path d="" fill="#A3A49F" transform="translate(0,0)"/>
<path d="" fill="#383532" transform="translate(0,0)"/>
<path d="" fill="#9B9797" transform="translate(0,0)"/>
<path d="" fill="#A4A3A1" transform="translate(0,0)"/>
<path d="" fill="#969792" transform="translate(0,0)"/>
<path d="" fill="#AEADA9" transform="translate(0,0)"/>
<path d="" fill="#B0ADA9" transform="translate(0,0)"/>
<path d="" fill="#939291" transform="translate(0,0)"/>
<path d="" fill="#999897" transform="translate(0,0)"/>
<path d="" fill="#888984" transform="translate(0,0)"/>
<path d="" fill="#2A271D" transform="translate(0,0)"/>
<path d="" fill="#302E2A" transform="translate(0,0)"/>
<path d="" fill="#ABA8A6" transform="translate(0,0)"/>
<path d="" fill="#5C5C59" transform="translate(0,0)"/>
<path d="" fill="#2D2820" transform="translate(0,0)"/>
<path d="" fill="#2A271D" transform="translate(0,0)"/>
<path d="" fill="#5A5A59" transform="translate(0,0)"/>
<path d="" fill="#A5A2A2" transform="translate(0,0)"/>
<path d="" fill="#ADACA8" transform="translate(0,0)"/>
<path d="" fill="#6F6D6C" transform="translate(0,0)"/>
<path d="" fill="#2D271B" transform="translate(0,0)"/>
<path d="" fill="#322F2B" transform="translate(0,0)"/>
<path d="" fill="#B2B0AE" transform="translate(0,0)"/>
<path d="" fill="#7F807E" transform="translate(0,0)"/>
<path d="" fill="#6F6E6A" transform="translate(0,0)"/>
<path d="" fill="#ABAAA8" transform="translate(0,0)"/>
<path d="" fill="#6B6C68" transform="translate(0,0)"/>
<path d="" fill="#6A6A6A" transform="translate(0,0)"/>
<path d="" fill="#A5A3A1" transform="translate(0,0)"/>
<path d="" fill="#AEABA8" transform="translate(0,0)"/>
<path d="" fill="#6A686A" transform="translate(0,0)"/>
<path d="" fill="#302A1D" transform="translate(0,0)"/>
<path d="" fill="#A2A2A0" transform="translate(0,0)"/>
<path d="" fill="#A8A6A5" transform="translate(0,0)"/>
<path d="" fill="#282824" transform="translate(0,0)"/>
<path d="" fill="#AAA8A6" transform="translate(0,0)"/>
<path d="" fill="#5F6059" transform="translate(0,0)"/>
<path d="" fill="#2D271E" transform="translate(0,0)"/>
<path d="" fill="#2E271B" transform="translate(0,0)"/>
<path d="" fill="#A5A29E" transform="translate(0,0)"/>
<path d="" fill="#575653" transform="translate(0,0)"/>
<path d="" fill="#A6A3A1" transform="translate(0,0)"/>
<path d="" fill="#52514E" transform="translate(0,0)"/>
<path d="" fill="#26241C" transform="translate(0,0)"/>
<path d="" fill="#9F9F9D" transform="translate(0,0)"/>
<path d="" fill="#2C2924" transform="translate(0,0)"/>
<path d="" fill="#484543" transform="translate(0,0)"/>
<path d="" fill="#43403E" transform="translate(0,0)"/>
<path d="" fill="#292720" transform="translate(0,0)"/>
<path d="" fill="#484441" transform="translate(0,0)"/>
<path d="" fill="#686764" transform="translate(0,0)"/>
<path d="" fill="#444341" transform="translate(0,0)"/>
<path d="" fill="#42413E" transform="translate(0,0)"/>
<path d="" fill="#2B271F" transform="translate(0,0)"/>
<path d="" fill="#2C271B" transform="translate(0,0)"/>
<path d="" fill="#666560" transform="translate(0,0)"/>
<path d="" fill="#64625F" transform="translate(0,0)"/>
<path d="" fill="#2A2720" transform="translate(0,0)"/>
<path d="" fill="#9D9B98" transform="translate(0,0)"/>
<path d="" fill="#292620" transform="translate(0,0)"/>
<path d="" fill="#29261F" transform="translate(0,0)"/>
<path d="" fill="#9D9D9D" transform="translate(0,0)"/>
<path d="" fill="#2A2822" transform="translate(0,0)"/>
<path d="" fill="#2B2821" transform="translate(0,0)"/>
<path d="" fill="#2B2820" transform="translate(0,0)"/>
<path d="" fill="#35322E" transform="translate(0,0)"/>
<path d="" fill="#312F2C" transform="translate(0,0)"/>
<path d="" fill="#A7A5A1" transform="translate(0,0)"/>
<path d="" fill="#33312D" transform="translate(0,0)"/>
<path d="" fill="#5B5956" transform="translate(0,0)"/>
<path d="" fill="#A7A39F" transform="translate(0,0)"/>
<path d="" fill="#32312D" transform="translate(0,0)"/>
<path d="" fill="#9A9C97" transform="translate(0,0)"/>
<path d="" fill="#9D9D9B" transform="translate(0,0)"/>
<path d="" fill="#575652" transform="translate(0,0)"/>
<path d="" fill="#A1A09D" transform="translate(0,0)"/>
<path d="" fill="#ACAAA7" transform="translate(0,0)"/>
<path d="" fill="#AAAAA4" transform="translate(0,0)"/>
<path d="" fill="#2D2A26" transform="translate(0,0)"/>
<path d="" fill="#A9A6A4" transform="translate(0,0)"/>
<path d="" fill="#A6A2A1" transform="translate(0,0)"/>
<path d="" fill="#2B2924" transform="translate(0,0)"/>
<path d="" fill="#989996" transform="translate(0,0)"/>
<path d="" fill="#292823" transform="translate(0,0)"/>
<path d="" fill="#9A9999" transform="translate(0,0)"/>
<path d="" fill="#A3A29E" transform="translate(0,0)"/>
<path d="" fill="#28241C" transform="translate(0,0)"/>
<path d="" fill="#A9A6A4" transform="translate(0,0)"/>
<path d="" fill="#ACAAA7" transform="translate(0,0)"/>
<path d="" fill="#AAA9A6" transform="translate(0,0)"/>
<path d="" fill="#939491" transform="translate(0,0)"/>
<path d="" fill="#A6A6A0" transform="translate(0,0)"/>
<path d="" fill="#A7A6A1" transform="translate(0,0)"/>
<path d="" fill="#27261C" transform="translate(0,0)"/>
<path d="" fill="#949393" transform="translate(0,0)"/>
<path d="" fill="#969594" transform="translate(0,0)"/>
<path d="" fill="#AEA9A7" transform="translate(0,0)"/>
<path d="" fill="#AEACAC" transform="translate(0,0)"/>
<path d="" fill="#383832" transform="translate(0,0)"/>
<path d="" fill="#A7A5A5" transform="translate(0,0)"/>
<path d="" fill="#939290" transform="translate(0,0)"/>
<path d="" fill="#ABABA9" transform="translate(0,0)"/>
<path d="" fill="#959797" transform="translate(0,0)"/>
<path d="" fill="#A7A5A5" transform="translate(0,0)"/>
<path d="" fill="#929090" transform="translate(0,0)"/>
<path d="" fill="#ACACAA" transform="translate(0,0)"/>
<path d="" fill="#A4A3A0" transform="translate(0,0)"/>
<path d="" fill="#A2A29F" transform="translate(0,0)"/>
<path d="" fill="#91908C" transform="translate(0,0)"/>
<path d="" fill="#A4A1A0" transform="translate(0,0)"/>
<path d="" fill="#918E8E" transform="translate(0,0)"/>
<path d="" fill="#A5A5A2" transform="translate(0,0)"/>
<path d="" fill="#989794" transform="translate(0,0)"/>
<path d="" fill="#28241A" transform="translate(0,0)"/>
<path d="" fill="#969592" transform="translate(0,0)"/>
<path d="" fill="#27241B" transform="translate(0,0)"/>
<path d="" fill="#9F9E9B" transform="translate(0,0)"/>
<path d="" fill="#A09F9C" transform="translate(0,0)"/>
<path d="" fill="#2A231D" transform="translate(0,0)"/>
<path d="" fill="#27251B" transform="translate(0,0)"/>
<path d="" fill="#8D8986" transform="translate(0,0)"/>
<path d="" fill="#979694" transform="translate(0,0)"/>
<path d="" fill="#969391" transform="translate(0,0)"/>
<path d="" fill="#979795" transform="translate(0,0)"/>
<path d="" fill="#2A2418" transform="translate(0,0)"/>
<path d="" fill="#898886" transform="translate(0,0)"/>
<path d="" fill="#979693" transform="translate(0,0)"/>
<path d="" fill="#989695" transform="translate(0,0)"/>
<path d="" fill="#999493" transform="translate(0,0)"/>
<path d="" fill="#8C8A8A" transform="translate(0,0)"/>
<path d="" fill="#81827F" transform="translate(0,0)"/>
<path d="" fill="#818281" transform="translate(0,0)"/>
<path d="" fill="#7B7978" transform="translate(0,0)"/>
<path d="" fill="#818081" transform="translate(0,0)"/>
<path d="" fill="#8E8F8D" transform="translate(0,0)"/>
<path d="" fill="#7A7A76" transform="translate(0,0)"/>
<path d="" fill="#848281" transform="translate(0,0)"/>
<path d="" fill="#9B9A98" transform="translate(0,0)"/>
<path d="" fill="#939491" transform="translate(0,0)"/>
<path d="" fill="#888584" transform="translate(0,0)"/>
<path d="" fill="#888682" transform="translate(0,0)"/>
<path d="" fill="#26241A" transform="translate(0,0)"/>
<path d="" fill="#82817F" transform="translate(0,0)"/>
<path d="" fill="#94938F" transform="translate(0,0)"/>
<path d="" fill="#2B261C" transform="translate(0,0)"/>
<path d="" fill="#27251C" transform="translate(0,0)"/>
<path d="" fill="#2A261A" transform="translate(0,0)"/>
<path d="" fill="#2F2D29" transform="translate(0,0)"/>
<path d="" fill="#2C2717" transform="translate(0,0)"/>
<path d="" fill="#2D2D2A" transform="translate(0,0)"/>
<path d="" fill="#29251C" transform="translate(0,0)"/>
<path d="" fill="#262523" transform="translate(0,0)"/>
<path d="" fill="#29251B" transform="translate(0,0)"/>
<path d="" fill="#2A261B" transform="translate(0,0)"/>
<path d="" fill="#232323" transform="translate(0,0)"/>
<path d="" fill="#292418" transform="translate(0,0)"/>
<path d="" fill="#302F29" transform="translate(0,0)"/>
<path d="" fill="#2E2C28" transform="translate(0,0)"/>
<path d="" fill="#29231B" transform="translate(0,0)"/>
<path d="" fill="#2B2927" transform="translate(0,0)"/>
<path d="" fill="#32302B" transform="translate(0,0)"/>
<path d="" fill="#29261D" transform="translate(0,0)"/>
<path d="" fill="#292622" transform="translate(0,0)"/>
<path d="" fill="#292824" transform="translate(0,0)"/>
<path d="" fill="#2A261C" transform="translate(0,0)"/>
<path d="" fill="#2A2926" transform="translate(0,0)"/>
<path d="" fill="#2A2827" transform="translate(0,0)"/>
<path d="" fill="#2A2723" transform="translate(0,0)"/>
<path d="" fill="#33322E" transform="translate(0,0)"/>
<path d="" fill="#2F2B29" transform="translate(0,0)"/>
<path d="" fill="#2E2B28" transform="translate(0,0)"/>
<path d="" fill="#2A2724" transform="translate(0,0)"/>
<path d="" fill="#2B2927" transform="translate(0,0)"/>
<path d="" fill="#2D2618" transform="translate(0,0)"/>
<path d="" fill="#2D2B2A" transform="translate(0,0)"/>
<path d="" fill="#2E2D2A" transform="translate(0,0)"/>
<path d="" fill="#2C2926" transform="translate(0,0)"/>
<path d="" fill="#2C281C" transform="translate(0,0)"/>
<path d="" fill="#2B2825" transform="translate(0,0)"/>
<path d="" fill="#2C2B2A" transform="translate(0,0)"/>
<path d="" fill="#2E2B2A" transform="translate(0,0)"/>
<path d="" fill="#2C2A25" transform="translate(0,0)"/>
<path d="" fill="#2E2E27" transform="translate(0,0)"/>
<path d="" fill="#2B2C28" transform="translate(0,0)"/>
<path d="" fill="#2A2923" transform="translate(0,0)"/>
<path d="" fill="#282722" transform="translate(0,0)"/>
<path d="" fill="#2A2924" transform="translate(0,0)"/>
<path d="" fill="#2A241B" transform="translate(0,0)"/>
<path d="" fill="#292621" transform="translate(0,0)"/>
<path d="" fill="#2B2B28" transform="translate(0,0)"/>
<path d="" fill="#2B2925" transform="translate(0,0)"/>
<path d="" fill="#262623" transform="translate(0,0)"/>
<path d="" fill="#282822" transform="translate(0,0)"/>
<path d="" fill="#262418" transform="translate(0,0)"/>
<path d="" fill="#28231A" transform="translate(0,0)"/>
<path d="" fill="#262317" transform="translate(0,0)"/>
<path d="" fill="#232118" transform="translate(0,0)"/>
<path d="" fill="#262220" transform="translate(0,0)"/>
<path d="" fill="#29271C" transform="translate(0,0)"/>
<path d="" fill="#28241C" transform="translate(0,0)"/>
<path d="" fill="#28241A" transform="translate(0,0)"/>
<path d="" fill="#29231A" transform="translate(0,0)"/>
<path d="" fill="#27231A" transform="translate(0,0)"/>
<path d="" fill="#27231A" transform="translate(0,0)"/>
<path d="" fill="#29241B" transform="translate(0,0)"/>
<path d="" fill="#26211C" transform="translate(0,0)"/>
<path d="" fill="#24221D" transform="translate(0,0)"/>
<path d="" fill="#28241B" transform="translate(0,0)"/>
<path d="" fill="#27221C" transform="translate(0,0)"/>
<path d="" fill="#25201A" transform="translate(0,0)"/>
<path d="" fill="#27231C" transform="translate(0,0)"/>
<path d="" fill="#1E1B17" transform="translate(0,0)"/>
<path d="" fill="#201E19" transform="translate(0,0)"/>
<path d="" fill="#28241D" transform="translate(0,0)"/>
<path d="" fill="#24211D" transform="translate(0,0)"/>
<path d="" fill="#262113" transform="translate(0,0)"/>
<path d="" fill="#221E18" transform="translate(0,0)"/>
<path d="" fill="#242119" transform="translate(0,0)"/>
<path d="" fill="#242019" transform="translate(0,0)"/>
<path d="" fill="#28231A" transform="translate(0,0)"/>
<path d="" fill="#211E16" transform="translate(0,0)"/>
<path d="" fill="#252317" transform="translate(0,0)"/>
<path d="" fill="#252119" transform="translate(0,0)"/>
<path d="" fill="#242219" transform="translate(0,0)"/>
<path d="" fill="#211D16" transform="translate(0,0)"/>
<path d="" fill="#261F1C" transform="translate(0,0)"/>
<path d="" fill="#262116" transform="translate(0,0)"/>
<path d="" fill="#5E4913" transform="translate(0,0)"/>
<path d="" fill="#282419" transform="translate(0,0)"/>
<path d="" fill="#242218" transform="translate(0,0)"/>
<path d="" fill="#262117" transform="translate(0,0)"/>
<path d="" fill="#252017" transform="translate(0,0)"/>
<path d="" fill="#232118" transform="translate(0,0)"/>
<path d="" fill="#221D16" transform="translate(0,0)"/>
<path d="" fill="#272315" transform="translate(0,0)"/>
</svg>
